<?xml version="1.0" encoding="utf-8"?>
<!-- Generator: Adobe Illustrator 17.1.0, SVG Export Plug-In . SVG Version: 6.00 Build 0)  -->
<!DOCTYPE svg PUBLIC "-//W3C//DTD SVG 1.1//EN" "http://www.w3.org/Graphics/SVG/1.1/DTD/svg11.dtd">
<svg version="1.1" xmlns="http://www.w3.org/2000/svg" xmlns:xlink="http://www.w3.org/1999/xlink" x="0px" y="0px"
	 viewBox="0 0 794.244 168.871" enable-background="new 0 0 794.244 168.871" xml:space="preserve">
<g id="Atlassian__x5F__Blue">
	<g>
		<g>
			<path fill="#FFFFFF" d="M231.78,45.337c-0.412-1.31-1.629-2.201-3.004-2.201h-29.394c-1.375,0-2.591,0.891-3.004,2.201
				l-37.086,117.618c-0.302,0.958-0.13,2,0.464,2.812c0.593,0.808,1.536,1.286,2.54,1.286h20.236c1.396,0,2.626-0.919,3.021-2.26
				l25.539-86.501c0,0,0.668-2.158,2.98-2.158c2.352,0,2.924,2.246,2.924,2.248l11.85,41.016h-15.918
				c-1.411,0-2.651,0.938-3.032,2.297l-4.567,16.239c-0.268,0.951-0.074,1.969,0.521,2.754c0.595,0.787,1.524,1.248,2.511,1.248
				h27.11l7.137,22.904c0.41,1.316,1.628,2.213,3.008,2.213h20.245c1.005,0,1.948-0.479,2.541-1.286
				c0.594-0.812,0.766-1.854,0.464-2.812L231.78,45.337z"/>
			<path fill="#FFFFFF" d="M319.949,148.927c-0.134-0.877-0.628-1.657-1.366-2.15c-0.738-0.493-1.648-0.651-2.51-0.436
				c-3.285,0.816-6.433,1.268-8.861,1.268c-4.605,0-6.657-1.997-6.657-6.475V96.069h18.071c1.739,0,3.15-1.412,3.15-3.15V78.863
				c0-1.739-1.411-3.148-3.15-3.148h-18.071v-21.7c0-0.911-0.395-1.778-1.082-2.375c-0.687-0.599-1.603-0.87-2.503-0.744
				l-18.605,2.592c-1.557,0.217-2.717,1.548-2.717,3.119v19.108h-10.135c-1.74,0-3.15,1.409-3.15,3.148v14.056
				c0,1.738,1.41,3.15,3.15,3.15h10.135v47.975c0,16.475,8.661,24.827,25.74,24.827c4.86,0,13.114-1.119,18.512-2.996
				c1.434-0.497,2.309-1.945,2.082-3.441L319.949,148.927z"/>
			<path fill="#FFFFFF" d="M354.394,40.842h-18.605c-1.739,0-3.15,1.409-3.15,3.151v119.91c0,1.74,1.411,3.15,3.15,3.15h18.605
				c1.739,0,3.15-1.41,3.15-3.15V43.993C357.544,42.251,356.133,40.842,354.394,40.842z"/>
			<path fill="#FFFFFF" d="M402.237,73.894c-9.42,0-20.883,1.485-29.202,3.786c-1.55,0.427-2.526,1.953-2.271,3.536l2.178,13.507
				c0.136,0.843,0.607,1.593,1.307,2.081c0.697,0.488,1.565,0.673,2.404,0.508c7.737-1.505,15.726-2.335,22.491-2.335
				c13.429,0,15.576,2.835,15.576,11.936v7.934h-19.944c-19.062,0-27.195,7.862-27.195,26.287c0,17.628,8.917,27.738,24.465,27.738
				c8.993,0,17.999-2.496,25.568-7.06l0.797,2.921c0.374,1.369,1.617,2.32,3.039,2.32h15.026c1.739,0,3.15-1.41,3.15-3.15v-56.625
				C439.626,82.941,429.492,73.894,402.237,73.894z M414.72,133.564v10.956c-3.084,1.645-8.672,3.998-15.395,3.998
				c-5.8,0-7.567-1.768-7.567-7.568c0-5.633,1.094-7.386,7.932-7.386H414.72z"/>
			<path fill="#FFFFFF" d="M486.25,110.521c-11.545-2.976-11.545-3.096-11.545-9.431c0-4.253,0.422-6.296,9.934-6.296
				c6.516,0,16.131,1.139,22.305,2.196c0.85,0.146,1.721-0.062,2.41-0.578c0.691-0.513,1.143-1.288,1.248-2.142l1.754-14.181
				c0.198-1.6-0.842-3.09-2.412-3.456c-7.14-1.664-17.073-2.74-25.305-2.74c-28.613,0-34.476,10.8-34.476,27.013
				c0,17.827,3.312,23.817,25.241,29.161c14.436,3.474,14.436,6.056,14.436,10.337c0,5.622-0.482,7.566-9.934,7.566
				c-7.609,0-16.417-1.184-24.164-3.25c-0.85-0.226-1.755-0.087-2.497,0.385c-0.743,0.467-1.255,1.229-1.413,2.094l-2.46,13.455
				c-0.284,1.555,0.625,3.076,2.127,3.562c8.449,2.742,20.58,4.654,29.499,4.654c27.706,0,33.384-11.598,33.384-29.014
				C514.383,120.626,510.967,117.063,486.25,110.521z"/>
			<path fill="#FFFFFF" d="M558.143,110.521c-11.545-2.976-11.545-3.096-11.545-9.431c0-4.253,0.422-6.296,9.934-6.296
				c6.517,0,16.131,1.139,22.306,2.196c0.849,0.146,1.72-0.062,2.41-0.578c0.69-0.513,1.142-1.288,1.247-2.142l1.754-14.181
				c0.197-1.6-0.842-3.09-2.411-3.456c-7.142-1.664-17.074-2.74-25.306-2.74c-28.612,0-34.476,10.8-34.476,27.013
				c0,17.827,3.312,23.817,25.242,29.161c14.436,3.474,14.436,6.056,14.436,10.337c0,5.622-0.48,7.566-9.934,7.566
				c-7.61,0-16.417-1.184-24.164-3.25c-0.85-0.226-1.755-0.087-2.497,0.385c-0.743,0.467-1.255,1.229-1.413,2.094l-2.46,13.455
				c-0.285,1.555,0.625,3.076,2.127,3.562c8.449,2.742,20.58,4.654,29.499,4.654c27.706,0,33.384-11.598,33.384-29.014
				C586.276,120.626,582.86,117.063,558.143,110.521z"/>
			<path fill="#FFFFFF" d="M618.356,40.837H599.75c-1.739,0-3.15,1.41-3.15,3.149v16.451c0,1.741,1.411,3.15,3.15,3.15h18.605
				c1.739,0,3.15-1.41,3.15-3.15V43.986C621.506,42.247,620.095,40.837,618.356,40.837z"/>
			<path fill="#FFFFFF" d="M618.356,75.715H599.75c-1.739,0-3.15,1.409-3.15,3.148v85.039c0,1.74,1.411,3.15,3.15,3.15h18.605
				c1.739,0,3.15-1.41,3.15-3.15V78.863C621.506,77.124,620.095,75.715,618.356,75.715z"/>
			<path fill="#FFFFFF" d="M666.667,73.894c-9.421,0-20.884,1.485-29.203,3.786c-1.549,0.427-2.526,1.953-2.271,3.536l2.178,13.507
				c0.136,0.843,0.607,1.593,1.307,2.081c0.698,0.488,1.565,0.673,2.405,0.508c7.735-1.505,15.724-2.335,22.49-2.335
				c13.429,0,15.576,2.835,15.576,11.936v7.934h-19.944c-19.062,0-27.195,7.862-27.195,26.287c0,17.628,8.917,27.738,24.465,27.738
				c8.993,0,17.999-2.496,25.568-7.06l0.797,2.921c0.374,1.369,1.618,2.32,3.039,2.32h15.026c1.739,0,3.15-1.41,3.15-3.15v-56.625
				C704.056,82.941,693.922,73.894,666.667,73.894z M679.15,133.564v10.956c-3.085,1.645-8.672,3.998-15.395,3.998
				c-5.8,0-7.567-1.768-7.567-7.568c0-5.633,1.094-7.386,7.932-7.386H679.15z"/>
			<path fill="#FFFFFF" d="M772.873,73.894c-9.863,0-23.294,3.4-34.643,8.727l-1.358-4.642c-0.393-1.343-1.625-2.264-3.023-2.264
				h-13.778c-1.739,0-3.15,1.409-3.15,3.148v85.039c0,1.74,1.411,3.15,3.15,3.15h18.605c1.739,0,3.15-1.41,3.15-3.15v-58.896
				c6.701-3.41,16.124-6.934,21.765-6.934c4.189,0,5.747,1.557,5.747,5.746v60.084c0,1.74,1.411,3.15,3.15,3.15h18.606
				c1.739,0,3.15-1.41,3.15-3.15v-62.45C794.244,83.165,787.054,73.894,772.873,73.894z"/>
		</g>
		<g>
			<path fill="#9FC71C" d="M182.17,1.74C181.358,0.65,180.061,0,178.705,0c-0.701,0-1.393,0.177-1.998,0.508
				C151.291,14.421,121.826,21.78,91.5,21.787C61.174,21.78,31.711,14.421,6.295,0.509C5.689,0.177,4.998,0.001,4.298,0.001
				c-1.358,0-2.654,0.649-3.465,1.736C-0.37,3.336-0.408,6.02,1.641,7.619c12.729,9.491,26.761,16.9,41.706,21.966
				c15.492,5.256,31.691,7.925,48.147,7.932h0.012c16.457-0.007,32.656-2.676,48.146-7.932
				c14.947-5.068,28.979-12.476,41.725-21.978C183.41,6.019,183.371,3.335,182.17,1.74z"/>
			<path fill="#57AFE5" d="M152.959,41.373c-0.605-0.46-1.333-0.699-2.071-0.699c-0.409,0-0.823,0.075-1.216,0.225
				c-7.367,2.817-14.848,4.957-21.676,6.547c-1.393,0.325-2.518,1.359-2.984,2.602c-4.975,13.627-17.678,26.602-31.006,40.194
				c-0.535,0.508-1.284,1.178-2.504,1.178c-1.217,0-1.959-0.648-2.504-1.178c-13.327-13.592-26.03-26.522-31.005-40.15
				c-0.467-1.241-1.593-2.275-2.983-2.601c-6.832-1.591-14.332-3.797-21.688-6.613c-0.396-0.15-0.809-0.225-1.22-0.225
				c-0.737,0-1.452,0.232-2.056,0.693c-0.944,0.72-1.434,1.888-1.322,3.01c1.129,11.332,5.606,22.41,13.687,34.019
				c7.596,10.915,17.503,21.017,27.083,30.787c17.65,18.002,34.323,35.005,35.786,54.722c0.132,1.778,1.613,3.157,3.4,3.157h20.736
				c0.934,0,1.826-0.384,2.471-1.061c0.643-0.677,0.982-1.584,0.936-2.519c-0.652-13.182-5.613-26.383-15.166-40.353
				c-2.002-2.93-4.146-5.779-6.389-8.568c-0.91-1.136-0.529-2.547,0.168-3.258c0.688-0.706,1.381-1.409,2.076-2.121
				c9.58-9.771,19.486-19.872,27.084-30.787c8.08-11.61,12.557-22.623,13.686-33.953C154.395,43.283,153.877,42.074,152.959,41.373z
				"/>
			<g>
				<path fill="#57AFE5" d="M69.251,124.497c-0.491-0.513-1.211-1.037-2.421-1.037c-1.547,0-2.466,1.07-2.813,1.601
					c-8.722,13.272-13.227,25.8-13.85,38.389c-0.046,0.928,0.296,1.85,0.939,2.528c0.644,0.674,1.548,1.062,2.48,1.062h20.701
					c1.781,0,3.281-1.394,3.413-3.17c0.451-6.067,2.34-12.149,5.778-18.54c1.191-2.211,0.266-4.288-0.42-5.176
					C79.646,135.717,75.467,130.984,69.251,124.497z"/>
			</g>
			<path fill="#57AFE5" d="M91.522,51.532c6.498,0,10.268-0.391,11.592-0.391c1.604,0,3.137,1.314,3.137,3.154
				c0,0.537-0.127,0.92-0.253,1.259c-0.862,2.305-4.79,10.595-12.102,17.706c-0.82,0.797-1.75,0.946-2.391,0.946h-0.008
				c-0.639,0-1.568-0.149-2.388-0.946c-7.313-7.111-11.242-15.401-12.102-17.706c-0.127-0.339-0.254-0.722-0.254-1.259
				c0-1.84,1.534-3.154,3.138-3.154c1.324,0,5.092,0.391,11.588,0.391H91.522z"/>
		</g>
	</g>
</g>
<g id="GUIDES">
</g>
</svg>
