<svg xmlns="http://www.w3.org/2000/svg" viewBox="0 0 1683.141 158.275" enable-background="new 0 0 1683.141 158.275"><g fill="#036"><path d="m299.7 35.447c-26.12 0-39.936 12.551-39.936 36.3v22.383c0 23.744 13.811 36.3 39.936 36.3 26.13 0 39.938-12.551 39.938-36.3v-22.383c0-23.744-13.811-36.3-39.938-36.3m-15.03 35.567c0-9.769 4.494-13.938 15.03-13.938 10.535 0 15.03 4.169 15.03 13.938v23.84c0 9.77-4.496 13.938-15.03 13.938-10.535 0-15.03-4.168-15.03-13.938v-23.84"/><path d="m407.2 35.447c-9.861 0-23.293 3.4-34.643 8.728l-1.357-4.642c-.395-1.342-1.625-2.267-3.02-2.267h-13.779c-1.738 0-3.15 1.411-3.15 3.151v85.03c0 1.74 1.412 3.15 3.15 3.15h18.605c1.74 0 3.15-1.41 3.15-3.15v-58.891c6.703-3.409 16.13-6.934 21.766-6.934 4.19 0 5.746 1.558 5.746 5.748v60.08c0 1.74 1.412 3.15 3.15 3.15h18.605c1.74 0 3.15-1.41 3.15-3.15v-62.44c.001-18.286-7.188-27.559-21.37-27.559"/><path d="m495.67 1.984c-5.02-1.279-10.787-1.984-16.25-1.984-19.893 0-29.562 9.432-29.562 28.833v11.03h-10.328c-1.74 0-3.15 1.41-3.15 3.152v14.05c0 1.738 1.41 3.148 3.15 3.148h10.328v65.24c0 1.74 1.412 3.15 3.15 3.15h18.605c1.738 0 3.15-1.41 3.15-3.15v-65.23h18.27c1.65 0 3.02-1.275 3.141-2.922l.006-14.06c0-1.032-.236-1.729-.834-2.371-.598-.641-1.432-1.01-2.307-1.01h-18.276v-9.753c0-6.795 1.307-9.206 8.661-9.206 2.272 0 5.736.351 9.05.917.838.145 1.703-.06 2.391-.563.688-.504 1.143-1.263 1.26-2.11l1.891-13.675c.22-1.587-.788-3.087-2.343-3.485"/><path d="m529.31 2.442h-18.605c-1.738 0-3.15 1.41-3.15 3.15v119.86c0 1.74 1.412 3.15 3.15 3.15h18.605c1.74 0 3.15-1.41 3.15-3.15v-119.86c.001-1.741-1.41-3.151-3.15-3.151"/><path d="m620.44 37.27h-18.605c-1.738 0-3.15 1.411-3.15 3.151v58.891c-6.703 3.41-16.12 6.936-21.764 6.936-4.189 0-5.748-1.557-5.748-5.748v-60.08c0-1.74-1.41-3.151-3.15-3.151h-18.606c-1.738 0-3.15 1.411-3.15 3.151v62.44c0 18.287 7.191 27.558 21.373 27.558 9.861 0 23.293-3.4 34.641-8.727l1.359 4.643c.393 1.343 1.623 2.266 3.02 2.266h13.777c1.74 0 3.15-1.41 3.15-3.15v-85.03c0-1.74-1.41-3.151-3.15-3.151"/><path d="m672.53 35.447c-24.935 0-38.12 12.424-38.12 35.932v23.475c0 24.266 12.344 35.566 38.844 35.566 10.803 0 22.305-1.887 31.559-5.178 1.482-.525 2.348-2.063 2.029-3.604l-2.75-13.316c-.176-.857-.701-1.602-1.449-2.055-.748-.454-1.65-.578-2.494-.339-8.537 2.417-16.68 3.591-24.893 3.591-13.555 0-15.939-4.377-15.939-13.573v-3.201h46.17c1.74 0 3.152-1.409 3.152-3.15v-17.12c-.001-25.26-11.477-37.02-36.11-37.02m-13.211 36.766v-3.02c0-8.766 4.254-12.846 13.393-12.846 10.09 0 12.12 4.914 12.12 12.846v3.02h-25.51"/><path d="m775.86 35.447c-9.861 0-23.293 3.4-34.643 8.728l-1.359-4.642c-.393-1.342-1.625-2.267-3.02-2.267h-13.779c-1.738 0-3.15 1.411-3.15 3.151v85.03c0 1.74 1.412 3.15 3.15 3.15h18.605c1.74 0 3.15-1.41 3.15-3.15v-58.891c6.703-3.409 16.13-6.934 21.766-6.934 4.189 0 5.746 1.558 5.746 5.748v60.08c0 1.74 1.412 3.15 3.15 3.15h18.605c1.74 0 3.15-1.41 3.15-3.15v-62.44c.001-18.286-7.189-27.559-21.37-27.559"/><path d="m868.89 109.34c-.131-.869-.617-1.642-1.342-2.136-.725-.494-1.621-.665-2.479-.468-5.342 1.224-10.939 1.871-16.189 1.871-11.801 0-15.213-3-15.213-13.393v-24.566c0-10.389 3.412-13.392 15.213-13.392 3.248 0 10.242.495 16.191 1.859.855.194 1.754.026 2.478-.467.725-.494 1.211-1.269 1.342-2.136l2.207-14.719c.232-1.555-.717-3.043-2.225-3.488-7.164-2.111-15.543-2.861-20.541-2.861-28.11 0-39.572 10.252-39.572 35.386v24.2c0 25.13 11.465 35.38 39.572 35.38 6.84 0 14.719-1.094 20.561-2.854 1.498-.451 2.439-1.937 2.207-3.483l-2.21-14.74"/><path d="m916.03 35.447c-24.934 0-38.12 12.424-38.12 35.932v23.475c0 24.266 12.344 35.566 38.844 35.566 10.803 0 22.305-1.887 31.559-5.178 1.482-.525 2.348-2.063 2.029-3.604l-2.75-13.316c-.176-.857-.701-1.602-1.449-2.055-.748-.454-1.65-.578-2.494-.339-8.537 2.417-16.68 3.591-24.893 3.591-13.555 0-15.939-4.377-15.939-13.573v-3.201h46.17c1.738 0 3.15-1.409 3.15-3.15v-17.12c-.001-25.26-11.477-37.02-36.12-37.02m-13.209 36.766v-3.02c0-8.766 4.256-12.846 13.393-12.846 10.09 0 12.12 4.914 12.12 12.846v3.02h-25.51"/><path d="m220.32 26.52c7.453 0 17.764 1.024 27.58 2.739.848.148 1.719-.058 2.41-.568.693-.51 1.146-1.279 1.256-2.133l2.102-16.371c.205-1.596-.826-3.09-2.391-3.463-9.852-2.357-21.1-3.654-31.686-3.654-29.52 0-44.486 12.273-44.486 36.478v54.599c0 24.2 14.967 36.478 44.486 36.478 10.582 0 21.834-1.299 31.686-3.652 1.564-.376 2.596-1.869 2.391-3.467l-2.102-16.369c-.109-.853-.562-1.624-1.254-2.135-.693-.51-1.568-.713-2.412-.567-9.818 1.717-20.13 2.741-27.58 2.741-14.641 0-19.58-4.299-19.58-17.03v-46.591c0-12.736 4.94-17.03 19.58-17.03"/><path d="m113.61 96.75c-2.02-3.974-4.404-7.991-7.199-12.08-2-2.929-4.145-5.778-6.387-8.567-.912-1.136-.529-2.548.166-3.25.69-.705 1.381-1.409 2.076-2.121 9.58-9.771 19.488-19.872 27.08-30.786 8.08-11.611 12.557-22.624 13.688-33.954.113-1.139-.404-2.347-1.324-3.049-.604-.46-1.332-.699-2.07-.699-.408 0-.824.075-1.217.226-7.367 2.817-14.846 4.957-21.676 6.547-1.391.325-2.516 1.359-2.982 2.602-4.977 13.627-17.68 26.604-31.01 40.2-.535.508-1.285 1.178-2.504 1.178-1.219 0-1.961-.648-2.504-1.178-13.328-13.593-26.03-26.524-31.01-40.15-.467-1.24-1.594-2.275-2.984-2.601-6.832-1.59-14.317-3.911-21.674-6.728-.394-.15-.809-.226-1.219-.226-.738 0-1.467.239-2.07.7-.939.717-1.439 1.871-1.322 3.047 1.129 11.332 5.605 22.481 13.688 34.09 7.596 10.914 17.502 21.02 27.08 30.786 17.65 17.994 34.32 34.997 35.787 54.713.131 1.779 1.613 3.158 3.398 3.158h20.738c.934 0 1.826-.384 2.471-1.061.643-.677.98-1.584.936-2.519-.184-3.713-.723-7.428-1.596-11.16l.008-.008c-.027-.109-.045-.22-.045-.335 0-.757.586-1.382 1.355-1.382.064 0 .129.012.193.021v-.001c16.93 2.48 27.635 6.438 27.652 10.8 0 .003 0 .006 0 .01 0 4.107-9.625 10.311-25.27 14.852l-.006.006c-1.391.396-2.406 1.654-2.406 3.146 0 1.809 1.494 3.279 3.34 3.279.256 0 .502-.029.74-.083 21.03-4.864 34.965-13.04 34.965-22.266.001-10.956-18.843-20.743-46.902-25.15"/><path d="m58.01 86.06c-.426-.444-1.277-1.038-2.422-1.038-1.547 0-2.467.999-2.812 1.529-2.264 3.445-4.24 6.844-5.947 10.209-28.02 4.418-46.831 14.195-46.831 25.14 0 9.237 13.84 17.394 34.906 22.255.002.001.023-.001.031-.002.248.059.502.096.768.096 1.846 0 3.34-1.471 3.34-3.279 0-1.488-1.016-2.73-2.4-3.131l-.01-.021c-15.645-4.541-25.27-10.744-25.27-14.852 0-.004 0-.007 0-.01.016-4.354 10.691-8.307 27.58-10.788.061-.01.119-.02.18-.02.777 0 1.369.632 1.369 1.396 0 .117-.018.229-.045.338l.014.015c-.867 3.716-1.399 7.415-1.582 11.11-.045.928.297 1.851.939 2.529.645.674 1.549 1.062 2.48 1.062h20.738c1.781 0 3.281-1.394 3.412-3.17.451-6.067 2.348-12.15 5.785-18.54 1.191-2.211.266-4.288-.42-5.176-3.411-4.437-7.59-9.169-13.805-15.656"/><path d="m77.869 34.829c.82.798 1.748.947 2.389.947h.006c.643 0 1.57-.15 2.391-.947 7.312-7.111 11.242-15.401 12.1-17.706.125-.339.252-.723.252-1.26 0-1.84-1.533-3.154-3.137-3.154-1.324 0-5.094.391-11.59.391h-.044c-6.496 0-10.266-.391-11.588-.391-1.605 0-3.139 1.314-3.139 3.154 0 .537.127.921.254 1.26.86 2.305 4.79 10.595 12.1 17.706"/><path d="m1060.05 128.75c11.942-2.12 20.686-7.365 25.999-15.599 4.694-7.274 5.68-15.426 5.68-20.983v-51.887c0-11.787-4.137-21.469-11.962-27.998-7.83-6.532-18.934-9.844-33-9.844s-25.17 3.312-32.999 9.844c-7.825 6.529-11.961 16.21-11.961 27.998v51.887c0 11.07 3.734 20.349 10.801 26.842 7.01 6.444 16.93 10.07 29.482 10.791l11.972 27.28c.215.49.617.873 1.117 1.064.229.088.472.132.714.132.283 0 .566-.06.828-.18l11.743-5.344c.997-.453 1.443-1.624 1-2.627l-9.415-21.371m-41.09-88.1c0-15.181 9.355-22.877 27.806-22.877 18.453 0 27.81 7.696 27.81 22.877v51.15c0 15.178-9.356 22.874-27.81 22.874-18.45 0-27.806-7.696-27.806-22.874v-51.15"/><path d="m1230.22 37.2c-11.686 0-20.658 2.903-26.672 8.63-6.04 5.752-9.103 14.343-9.103 25.532v26.861c0 22.927 11.485 33.605 36.14 33.605 10.613 0 22.12-1.799 30.78-4.812.919-.319 1.474-1.253 1.316-2.212l-1.607-9.805c-.091-.554-.409-1.044-.88-1.351-.328-.215-.709-.326-1.094-.326-.166 0-.332.021-.494.062-10.01 2.553-19 3.848-26.732 3.848-16.01 0-20.643-4.306-20.643-19.19v-6.867h51.29c1.104 0 2-.896 2-2v-17.441c.001-23.23-11.22-34.53-34.3-34.53m0 14.233c13 0 18.07 5.279 18.07 18.826v6.687h-37.05v-6.687c.001-13.02 5.856-18.826 18.985-18.826"/><path d="m1432.08 37.4h-12.787c-1.104 0-2 .895-2 2v87.21c0 1.104.896 2 2 2h12.787c1.104 0 2-.896 2-2v-87.21c0-1.105-.896-2-2-2"/><path d="m1432.08 1.12h-12.787c-1.104 0-2 .895-2 2v16.519c0 1.104.896 2 2 2h12.787c1.104 0 2-.896 2-2v-16.519c0-1.104-.896-2-2-2"/><path d="m1555 126.61v-65.972c9.16-4.682 22.737-8.75 29.28-8.75 5.504 0 7.959 2.345 7.959 7.604v67.12c0 1.104.896 2 2 2h12.795c1.104 0 2-.896 2-2v-67.3c0-15.808-6.598-23.491-20.17-23.491-10.432 0-25.555 4.596-35.515 9.258l-1.104-5.793c-.18-.943-1.01-1.625-1.965-1.625h-10.08c-1.104 0-2 .896-2 2v86.953c0 1.104.896 2 2 2h12.799c1.104-.001 2-.896 2-2"/><path d="m1523.68 70.967c0-6.06-1.126-14.781-6.491-21.908-6.215-8.254-16.5-12.44-30.569-12.44-14.07 0-24.354 4.186-30.568 12.44-5.364 7.127-6.49 15.847-6.49 21.908v25.939c0 6.06 1.126 14.779 6.49 21.903 6.215 8.254 16.498 12.438 30.568 12.438 14.07 0 24.354-4.185 30.569-12.438 5.365-7.125 6.491-15.844 6.491-21.903v-25.939m-57.34-.554c0-12.614 6.822-19.01 20.277-19.01 13.453 0 20.273 6.396 20.273 19.01v27.05c0 12.61-6.82 19-20.273 19-13.455 0-20.277-6.395-20.277-19v-27.05"/><path d="m1654.89 75.57c-14.743-3.599-14.743-5.092-14.743-14.806 0-4.355.631-6.605 2.248-8.02 1.967-1.723 5.824-2.523 12.141-2.523 6.592 0 15.5.878 23.25 2.292.119.022.24.032.359.032.436 0 .862-.142 1.213-.41.448-.342.73-.855.779-1.417l.877-10.126c.084-.975-.549-1.867-1.496-2.11-7.09-1.817-15.994-2.86-24.432-2.86-26.19 0-31.555 9.904-31.555 24.777 0 18.809 2.283 23.773 24.758 29.355 18.238 4.475 18.238 5.608 18.238 14.432 0 5.059-.797 7.723-2.748 9.196-2.111 1.593-6.03 2.272-13.11 2.272-7.186 0-16.368-1.253-23.965-3.27-.17-.045-.342-.067-.514-.067-.381 0-.758.109-1.084.319-.474.306-.796.796-.889 1.351l-1.604 9.609c-.16.957.391 1.892 1.307 2.215 7.279 2.571 18.914 4.438 27.663 4.438 8.714 0 17.587-.586 23.46-4.839 5.523-3.998 8.096-10.919 8.096-21.777 0-8.464-.312-14.328-4.479-18.562-3.919-3.984-11.08-6.325-23.771-9.5"/><path d="m1308.83 77.59c-14.743-3.599-14.743-5.092-14.743-14.806 0-4.356.631-6.606 2.248-8.02 1.967-1.723 5.824-2.523 12.141-2.523 6.592 0 15.5.878 23.25 2.292.119.022.24.032.359.032.436 0 .862-.142 1.213-.41.448-.342.73-.855.779-1.417l.877-10.126c.084-.975-.549-1.867-1.496-2.11-7.09-1.817-15.994-2.86-24.432-2.86-26.19 0-31.555 9.904-31.555 24.777 0 18.809 2.283 23.773 24.758 29.355 18.238 4.475 18.238 5.608 18.238 14.432 0 5.059-.797 7.723-2.748 9.196-2.111 1.593-6.03 2.272-13.11 2.272-7.186 0-16.368-1.253-23.965-3.27-.17-.045-.342-.067-.514-.067-.381 0-.758.109-1.084.319-.474.306-.796.796-.889 1.352l-1.604 9.609c-.16.957.391 1.892 1.307 2.215 7.279 2.571 18.914 4.438 27.663 4.438 8.714 0 17.587-.586 23.46-4.839 5.523-3.998 8.096-10.919 8.096-21.777 0-8.464-.312-14.328-4.479-18.562-3.92-3.985-11.08-6.325-23.771-9.5"/><path d="m1401.48 115.77c-.094-.548-.41-1.032-.875-1.338-.328-.216-.711-.328-1.098-.328-.16 0-.319.019-.477.058-5.176 1.27-9.119 1.836-12.785 1.836-8.113 0-8.508-3.346-8.508-9.259v-54.887h22.19c1.104 0 2-.896 2-2v-10.23c0-1.104-.896-2-2-2h-22.19v-22.08c0-.579-.252-1.131-.689-1.51-.366-.318-.832-.49-1.311-.49-.094 0-.188.008-.283.021l-12.795 1.827c-.986.141-1.718.985-1.718 1.98v20.254h-13.8c-1.104 0-2 .896-2 2v10.23c0 1.104.896 2 2 2h13.8v57.47c0 7.44 1.811 12.709 5.536 16.11 3.723 3.4 9.244 4.983 17.377 4.983 5.936 0 12.292-1.054 17.898-2.967.928-.317 1.489-1.26 1.326-2.227l-1.598-9.446"/><path d="m1177.19 37.625h-12.784c-1.104 0-2 .896-2 2v65.97c-9.159 4.686-22.729 8.753-29.28 8.753-5.505 0-7.96-2.346-7.96-7.605v-67.12c0-1.104-.896-2-2-2h-12.797c-1.104 0-2 .896-2 2v67.3c0 15.804 6.598 23.485 20.17 23.485 10.426 0 25.551-4.592 35.515-9.249l1.102 5.787c.18.943 1.01 1.626 1.965 1.626h10.07c1.104 0 2-.895 2-2v-86.953c-.001-1.104-.898-2-2-2"/></g></svg>