<svg xmlns="http://www.w3.org/2000/svg" viewBox="0 0 984.127 267.72" enable-background="new 0 0 984.127 267.72"><g fill="#036"><path d="m313.08 136.5c-26.12 0-39.936 12.551-39.936 36.3v22.383c0 23.744 13.811 36.29 39.936 36.29 26.13 0 39.938-12.551 39.938-36.3v-22.383c0-23.744-13.811-36.29-39.938-36.29m-15.03 35.566c0-9.769 4.494-13.938 15.03-13.938 10.535 0 15.03 4.169 15.03 13.938v23.84c0 9.77-4.496 13.938-15.03 13.938-10.535 0-15.03-4.168-15.03-13.938v-23.84"/><path d="m420.58 136.5c-9.861 0-23.293 3.4-34.643 8.728l-1.357-4.642c-.395-1.342-1.625-2.267-3.02-2.267h-13.779c-1.738 0-3.15 1.411-3.15 3.151v85.03c0 1.74 1.412 3.15 3.15 3.15h18.605c1.74 0 3.15-1.41 3.15-3.15v-58.893c6.703-3.409 16.13-6.934 21.766-6.934 4.19 0 5.746 1.558 5.746 5.748v60.08c0 1.74 1.412 3.15 3.15 3.15h18.605c1.74 0 3.15-1.41 3.15-3.15v-62.44c.001-18.284-7.188-27.557-21.37-27.557"/><path d="m509.05 103.04c-5.02-1.279-10.787-1.984-16.25-1.984-19.893 0-29.562 9.432-29.562 28.833v11.03h-10.328c-1.74 0-3.15 1.41-3.15 3.152v14.06c0 1.738 1.41 3.149 3.15 3.149h10.328v65.24c0 1.74 1.412 3.15 3.15 3.15h18.605c1.738 0 3.15-1.41 3.15-3.15v-65.24h18.27c1.65 0 3.02-1.275 3.141-2.922l.006-14.06c0-1.032-.236-1.729-.834-2.371-.598-.641-1.432-1.01-2.307-1.01h-18.275v-9.752c0-6.795 1.307-9.206 8.66-9.206 2.272 0 5.736.352 9.05.917.838.144 1.703-.06 2.391-.564s1.143-1.263 1.26-2.11l1.891-13.675c.219-1.586-.789-3.086-2.343-3.484"/><path d="m542.69 103.5h-18.605c-1.738 0-3.15 1.41-3.15 3.15v119.86c0 1.74 1.412 3.15 3.15 3.15h18.605c1.74 0 3.15-1.41 3.15-3.15v-119.86c0-1.74-1.41-3.15-3.15-3.15"/><path d="m633.82 138.32h-18.605c-1.738 0-3.15 1.411-3.15 3.151v58.891c-6.703 3.41-16.12 6.936-21.764 6.936-4.189 0-5.748-1.557-5.748-5.748v-60.08c0-1.74-1.41-3.151-3.15-3.151h-18.605c-1.738 0-3.15 1.411-3.15 3.151v62.44c0 18.287 7.191 27.558 21.373 27.558 9.861 0 23.293-3.4 34.641-8.727l1.359 4.643c.393 1.343 1.623 2.266 3.02 2.266h13.777c1.74 0 3.15-1.41 3.15-3.15v-85.03c0-1.742-1.41-3.153-3.151-3.153"/><path d="m685.91 136.5c-24.935 0-38.12 12.424-38.12 35.932v23.475c0 24.266 12.344 35.566 38.844 35.566 10.803 0 22.305-1.887 31.559-5.178 1.482-.525 2.348-2.064 2.029-3.604l-2.75-13.316c-.176-.856-.701-1.602-1.449-2.055-.748-.454-1.65-.578-2.494-.339-8.537 2.417-16.68 3.591-24.893 3.591-13.555 0-15.939-4.377-15.939-13.573v-3.201h46.17c1.74 0 3.152-1.409 3.152-3.15v-17.12c0-25.26-11.477-37.02-36.11-37.02m-13.211 36.766v-3.02c0-8.766 4.254-12.846 13.393-12.846 10.09 0 12.12 4.914 12.12 12.846v3.02h-25.51"/><path d="m789.24 136.5c-9.861 0-23.293 3.4-34.643 8.728l-1.359-4.642c-.393-1.342-1.625-2.267-3.02-2.267h-13.779c-1.738 0-3.15 1.411-3.15 3.151v85.03c0 1.74 1.412 3.15 3.15 3.15h18.605c1.74 0 3.15-1.41 3.15-3.15v-58.893c6.703-3.409 16.13-6.934 21.766-6.934 4.19 0 5.746 1.558 5.746 5.748v60.08c0 1.74 1.412 3.15 3.15 3.15h18.606c1.74 0 3.15-1.41 3.15-3.15v-62.44c0-18.284-7.189-27.557-21.371-27.557"/><path d="m882.27 210.4c-.131-.869-.617-1.642-1.342-2.136-.725-.494-1.621-.665-2.479-.468-5.342 1.224-10.939 1.871-16.189 1.871-11.801 0-15.213-3-15.213-13.393v-24.566c0-10.389 3.412-13.392 15.213-13.392 3.248 0 10.242.495 16.191 1.859.855.194 1.754.026 2.479-.467.725-.494 1.211-1.269 1.342-2.136l2.207-14.719c.232-1.555-.717-3.043-2.225-3.488-7.164-2.111-15.543-2.861-20.541-2.861-28.11 0-39.572 10.252-39.572 35.386v24.2c0 25.13 11.465 35.38 39.572 35.38 6.84 0 14.719-1.094 20.56-2.854 1.498-.451 2.44-1.936 2.207-3.483l-2.21-14.74"/><path d="m929.41 136.5c-24.934 0-38.12 12.424-38.12 35.932v23.475c0 24.266 12.344 35.566 38.844 35.566 10.803 0 22.305-1.887 31.559-5.178 1.482-.525 2.348-2.064 2.029-3.604l-2.75-13.316c-.176-.856-.701-1.602-1.449-2.055-.748-.454-1.65-.578-2.494-.339-8.537 2.417-16.68 3.591-24.893 3.591-13.555 0-15.939-4.377-15.939-13.573v-3.201h46.17c1.738 0 3.15-1.409 3.15-3.15v-17.12c-.001-25.26-11.477-37.02-36.12-37.02m-13.209 36.766v-3.02c0-8.766 4.256-12.846 13.393-12.846 10.09 0 12.12 4.914 12.12 12.846v3.02h-25.51"/><path d="m233.7 127.58c7.453 0 17.764 1.024 27.58 2.739.848.148 1.719-.058 2.41-.568.693-.51 1.147-1.28 1.256-2.133l2.102-16.371c.205-1.595-.826-3.09-2.391-3.463-9.852-2.356-21.1-3.653-31.686-3.653-29.52 0-44.486 12.272-44.486 36.476v54.598c0 24.2 14.967 36.478 44.486 36.478 10.582 0 21.834-1.299 31.686-3.652 1.564-.376 2.596-1.869 2.391-3.467l-2.102-16.369c-.109-.852-.562-1.624-1.254-2.135-.693-.51-1.568-.713-2.412-.567-9.818 1.717-20.13 2.741-27.58 2.741-14.641 0-19.58-4.299-19.58-17.03v-46.589c0-12.735 4.94-17.03 19.58-17.03"/><path d="m127 197.8c-2.02-3.974-4.405-7.991-7.199-12.08-2-2.929-4.146-5.778-6.388-8.567-.911-1.136-.529-2.548.167-3.25.688-.705 1.381-1.409 2.076-2.121 9.58-9.77 19.487-19.872 27.08-30.786 8.08-11.61 12.557-22.623 13.686-33.953.113-1.139-.404-2.347-1.323-3.049-.604-.46-1.333-.699-2.071-.699-.408 0-.823.075-1.216.226-7.367 2.817-14.847 4.957-21.676 6.547-1.392.325-2.517 1.359-2.983 2.602-4.976 13.627-17.679 26.603-31.01 40.19-.535.508-1.285 1.178-2.504 1.178-1.218 0-1.96-.648-2.504-1.178-13.327-13.592-26.03-26.521-31.01-40.15-.467-1.24-1.593-2.275-2.983-2.601-6.832-1.591-14.317-3.912-21.674-6.729-.396-.15-.81-.226-1.22-.226-.737 0-1.467.239-2.07.7-.939.717-1.439 1.871-1.322 3.047 1.129 11.332 5.605 22.481 13.688 34.09 7.596 10.914 17.503 21.02 27.08 30.786 17.65 17.994 34.32 34.997 35.787 54.713.131 1.779 1.613 3.158 3.399 3.158h20.737c.934 0 1.826-.384 2.471-1.061.642-.677.981-1.584.935-2.519-.184-3.713-.723-7.428-1.596-11.16l.008-.008c-.026-.109-.045-.22-.045-.335 0-.757.586-1.382 1.355-1.382.065 0 .129.012.193.021l.001-.001c16.929 2.48 27.635 6.438 27.651 10.8 0 .003 0 .006 0 .01 0 4.107-9.625 10.311-25.27 14.852l-.006.006c-1.391.396-2.405 1.654-2.405 3.146 0 1.809 1.493 3.279 3.34 3.279.255 0 .501-.029.739-.083 21.03-4.864 34.966-13.04 34.966-22.266.002-10.957-18.842-20.744-46.9-25.15"/><path d="m71.39 187.11c-.425-.444-1.277-1.038-2.422-1.038-1.547 0-2.466.999-2.812 1.529-2.264 3.445-4.24 6.844-5.946 10.209-28.02 4.418-46.83 14.195-46.83 25.14 0 9.237 13.84 17.394 34.905 22.255.003.001.023-.001.031-.002.248.059.503.096.769.096 1.846 0 3.339-1.471 3.339-3.279 0-1.488-1.016-2.73-2.399-3.131l-.011-.022c-15.644-4.541-25.27-10.744-25.27-14.852 0-.004 0-.007 0-.01.016-4.354 10.692-8.307 27.58-10.788.061-.01.119-.02.181-.02.776 0 1.369.632 1.369 1.396 0 .117-.019.229-.046.338l.014.015c-.867 3.716-1.398 7.415-1.581 11.11-.046.928.296 1.851.94 2.529.643.674 1.548 1.062 2.479 1.062h20.738c1.781 0 3.281-1.394 3.412-3.17.451-6.067 2.348-12.149 5.786-18.54 1.191-2.211.266-4.288-.421-5.176-3.412-4.436-7.591-9.168-13.807-15.656"/><path d="m91.25 135.88c.82.798 1.749.947 2.389.947h.007c.642 0 1.57-.149 2.391-.947 7.312-7.11 11.241-15.4 12.1-17.705.126-.339.253-.723.253-1.26 0-1.84-1.533-3.154-3.137-3.154-1.324 0-5.094.391-11.591.391h-.043c-6.496 0-10.265-.391-11.588-.391-1.604 0-3.139 1.314-3.139 3.154 0 .537.127.921.254 1.26.859 2.304 4.789 10.594 12.1 17.705"/></g></svg>