<svg xmlns="http://www.w3.org/2000/svg" viewBox="8.3 747.2 602.8 55.9" enable-background="new 8.3 747.2 602.8 55.9"><g fill="#8c8c8c"><path d="m564.9 788.8v3.1h.2c.6.2 1.4.2 2.1.2s1.2 0 1.8 0 1.2-.2 1.6-.4c.6-.2 1.2-.6 1.8-1 .4-.4.8-.8 1-1.4.4-1 .4-2.1 0-3.1-.2-.4-.6-1-1-1.2-.4-.4-.8-.6-1.4-.8l-2.3-.8c-.2-.2-.4-.4-.6-.6 0-.2 0-.4 0-.6 0 0 0-.2.2-.2l.2-.2c0 0 0 0 .2 0 .2-.2.6-.2.8-.2.4 0 1 0 1.4 0 .6 0 1 .2 1.6.2h.2v-2.9h-.2c-.6-.2-1.2-.2-1.6-.2-.8 0-1.4 0-2.3 0-1 0-1.8.4-2.7 1-.4.4-.8.8-1 1.4-.4.8-.4 1.8 0 2.9.2.4.4.8.8 1.2.2.2.6.6 1 .8s1 .4 1.6.6c.2 0 .4.2.6.2h.2c.2 0 .4.2.6.4.2.2.2.2.4.4 0 .2 0 .4 0 .4 0 .2-.2.4-.6.6-.2.2-.6.2-.8.2-.4 0-.8 0-1.4 0-.6 0-1.2-.2-1.8-.2 0 .4-.2.2-.6.2"/><path d="m552.5 791.6v-3.5c-.8.4-1.6.6-2.5.6-.8 0-1.8-.2-2.5-.8-.6-.4-.8-1-1-1.6s-.2-1.4 0-2.1.6-1.4 1-1.8c.4-.4 1-.6 1.8-.8 1.2-.2 2.3 0 3.3.6v-3.1h-.2c-1-.4-2.1-.4-3.1-.4-1 0-1.8.2-2.9.6-.8.4-1.6 1-2.3 1.8-2.1 2.5-2.1 6-.2 8.4 1 1.2 2.3 2.1 3.7 2.5 1.6.4 3.1.4 4.7-.2l.2-.2"/><path d="m560.3 791.9v-13.2h-3.2v13.2h3.2"/><path d="m535.7 768.2c0 .4.2.8.6 1 .4.2.6.4 1 .4s.8-.2 1-.4.4-.6.6-1v-3.7c0-.4-.2-.8-.4-1-.2-.2-.6-.4-1.2-.4-.4 0-.8.2-1.2.4-.2.2-.4.6-.4 1v3.7"/><path d="m544.7 768.2c0 .4.2.8.6 1 .2.2.6.4 1 .4s.8-.2 1-.4.4-.6.6-1v-8.2c0-.4-.2-.8-.4-1s-.6-.4-1.2-.4c-.4 0-.8.2-1.2.4-.2.2-.4.6-.4 1v8.2"/><path d="m553.8 771.5c0 .4.2.8.6 1 .2.2.6.4 1 .4.4 0 .8-.2 1-.4s.4-.6.6-1v-17.7c0-.4-.2-.8-.4-1s-.6-.4-1.2-.4c-.4 0-.8.2-1.2.4-.2.2-.4.6-.4 1v17.7"/><path d="m562.8 768.2c0 .4.2.8.6 1 .2.2.6.4 1 .4s.8-.2 1-.4.4-.6.6-1v-8.2c0-.4-.2-.8-.4-1s-.6-.4-1.2-.4c-.4 0-.8.2-1.2.4-.2.2-.4.6-.4 1v8.2"/><path d="m571.8 768.2c0 .4.2.8.6 1s.6.4 1 .4.8-.2 1-.4c.2-.2.4-.6.6-1v-3.7c0-.4-.2-.8-.4-1-.2-.2-.6-.4-1.2-.4-.4 0-.8.2-1.2.4-.2.2-.4.6-.4 1v3.7"/><path d="m580.9 768.2c0 .4.2.8.6 1 .2.2.6.4 1 .4s.8-.2 1-.4.4-.6.6-1v-8.2c0-.4-.2-.8-.4-1s-.6-.4-1.2-.4c-.4 0-.8.2-1.2.4-.2.2-.4.6-.4 1v8.2"/><path d="m589.7 771.5c0 .4.2.8.6 1 .2.2.6.4 1 .4s.8-.2 1-.4.4-.6.6-1v-17.7c0-.4-.2-.8-.4-1s-.6-.4-1.2-.4c-.4 0-.8.2-1.2.4-.2.2-.4.6-.4 1v17.7"/><path d="m598.7 768.2c0 .4.2.8.6 1 .2.2.6.4 1 .4.4 0 .8-.2 1-.4s.4-.6.6-1v-8.2c0-.4-.2-.8-.4-1s-.6-.4-1.2-.4c-.4 0-.8.2-1.2.4-.2.2-.4.6-.4 1v8.2"/><path d="m607.8 768.2c0 .4.2.8.6 1 .2.2.6.4 1 .4s.8-.2 1-.4.4-.6.6-1v-3.7c0-.4-.2-.8-.4-1-.2-.2-.6-.4-1.2-.4-.4 0-.8.2-1.2.4-.2.2-.4.6-.4 1v3.7"/><path d="m587 791.6v-3.5c-.8.4-1.6.6-2.5.6-.8 0-1.8-.2-2.5-.8-.6-.4-.8-1-1-1.6s-.2-1.4 0-2.1.6-1.4 1-1.8c.4-.4 1-.6 1.8-.8 1.2-.2 2.3 0 3.3.6v-3.1h-.1c-1-.4-2.1-.4-3.1-.4s-1.8.2-2.9.6c-.8.4-1.6 1-2.3 1.8-2.1 2.5-2.1 6-.2 8.4 1 1.2 2.3 2.1 3.7 2.5 1.6.4 3.1.4 4.7-.2l.1-.2"/><path d="m590.5 785.3c0 2.1 1 4.1 2.7 5.3 1.6 1.2 3.7 1.8 5.8 1.2 2.7-.6 4.9-2.7 5.3-5.3s-.8-5.5-3.1-7c-2.1-1.2-4.7-1.4-7-.2-2.2 1.3-3.7 3.5-3.7 6m4.8-2.7c.6-.6 1.6-.8 2.5-.8.8 0 1.6.6 2.3 1.2.6.6.8 1.6.8 2.5 0 .8-.6 1.6-1.2 2.3-.6.6-1.6.8-2.5.8-.8 0-1.6-.6-2.3-1.2-.6-.6-.8-1.6-.8-2.5s.5-1.7 1.2-2.3"/><path d="m445.7 756.3h25.7v25.7h-25.7v-25.7m3.7 22h18.5v-18.5h-18.5v18.5"/><path d="m451.5 775.6h4.5l9.9-13.1h-4.7z"/><path d="m294.4 769.3h-1.6v10.3h1.6c4.1 0 5.3-1.8 5.3-5.1 0-3.6-1.8-5.2-5.3-5.2m.4 12.5h-4.9v-14.8h4.9c5.1 0 8 2.5 8 7.4 0 4.9-2.5 7.4-8 7.4"/><path d="m309.6 771.3c-3.9 0-5.3 2.9-5.3 5.3 0 3.1 1.6 5.3 4.9 5.5 2.7 0 4.9-.8 5.1-3.7h-2.7c0 1.2-1 1.8-2.1 1.8-1.8 0-2.5-1.4-2.5-3.1h7.4c.3-2.9-.9-5.8-4.8-5.8m-2.5 4.3c0-1.4.8-2.7 2.3-2.7 1.4 0 2.3 1 2.3 2.7h-4.6z"/><path d="m326.6 781.8h-2.9v-1.6c-.4 1.2-1.8 2.1-3.3 2.1-1.8 0-3.7-1.2-3.7-3.9v-6.8h2.9v6.4c0 1.4.6 2.3 2.1 2.3 1.2 0 2.3-.6 2.3-2.7v-6h2.9v10.3h-.3z"/><path d="m330.3 771.7v-1.6l2.7-1.4v3.1h2.7v2.1h-2.7v4.9c0 1 .4 1.6 1.4 1.6.4 0 .8 0 1.2-.2v1.8c-1.4.2-2.9.6-4.1-.2-1-.6-1.2-1.4-1.2-2.9v-5.1h-2.3v-2.1h2.3"/><path d="m346.4 777.5c.4.8.4 2.1-.2 2.9-1 1.4-3.1 1.8-4.7 1.8-2.3-.2-4.3-.8-4.3-3.5h2.9c0 1.2.8 1.6 1.8 1.6 1 0 2.1-.4 2.1-1.2s-.8-1-1.6-1.2c-1-.2-1.8-.4-3.1-.8-1-.4-1.8-1.2-1.8-2.7 0-1.2 1-2.1 2.1-2.7.8-.4 1.8-.4 2.7-.4 2.1 0 4.1.6 3.9 3.1h-2.7c0-.4 0-.8-.4-1-.6-.4-2.3-.6-2.9.2-.6 1.4 1.2 1.6 3.5 2.1 1.2.3 2.2 1 2.7 1.8"/><path d="m353.3 771.3c2.3 0 4.5 1 4.5 3.9h-2.7c0-1.2-.8-2.1-2.1-2.1-.4 0-.8.2-1 .2-.8.4-1 1.8-1 3.3 0 1.4.4 2.9 1 3.5.4.4 1.2.6 1.8.4 1-.2 1.4-1.2 1.4-2.3h2.7c0 2.9-2.5 4.1-4.9 4.1-3.3-.2-4.9-2.3-4.9-5.5.1-3.4 1.9-5.5 5.2-5.5"/><path d="m360.1 767h2.9v6.2c.8-1.2 1.8-1.8 3.3-1.8 1.8 0 3.7 1.4 3.7 3.5v7h-2.9v-6.4c0-1.4-.6-2.3-1.8-2.3s-2.3.8-2.3 2.7v6h-2.9v-14.9"/><path d="m377.4 771.3c-3.9 0-5.3 2.9-5.3 5.3 0 3.1 1.6 5.3 4.9 5.5 2.7 0 4.9-.8 5.1-3.7h-2.7c0 1.2-1 1.8-2.1 1.8-1.8 0-2.5-1.4-2.5-3.1h7.4c.5-2.9-.9-5.8-4.8-5.8m-2.3 4.3c0-1.4.8-2.7 2.3-2.7 1.4 0 2.3 1 2.3 2.7h-4.6z"/><path d="m397.1 775.4h-3.3v4.3h3.1c2.1 0 2.7-1 2.7-2.3.1-.9-.7-2.2-2.5-2m-.4-6.1h-2.9v3.9h2.9c1.6 0 2.3-.6 2.3-1.8.1-1.3-.7-2.1-2.3-2.1m3.3 12.1c-1 .4-2.3.4-3.5.4h-5.3v-14.8h5.8c2.5 0 5.1.8 5.3 3.7 0 1.8-1.2 2.9-2.7 3.5 1.2.4 2.3.6 2.9 1.8.6 1 .6 2.3.2 3.3-.9 1.1-1.5 1.7-2.7 2.1"/><path d="m414.1 774.4c0-2.1-2.3-3.1-4.9-3.1-2.5 0-4.3.8-4.3 3.3h2.7c0-1 .6-1.6 1.6-1.6 1.4 0 2.3.6 2.1 2.5-1.4 0-3.5 0-4.9.6-1 .6-1.8 1.4-1.8 3.1 0 2.1 1.4 3.1 3.5 3.3 1.4.2 3.1-.4 3.7-1.8l.2 1.4h2.5l-.4-7.7m-5.1 6c-1 0-1.6-.6-1.6-1.6 0-2.3 2.7-1.8 4.1-1.8 0 1.5 0 3.4-2.5 3.4"/><path d="m416.8 771.5h2.9v1.6c.8-1.4 2.1-1.8 3.7-1.8 1.6 0 3.5 1 3.5 3.5v7h-2.9v-6.4c0-1.2-.6-2.3-1.8-2.3-1.2 0-2.3.8-2.3 2.7v6h-3.1v-10.3"/><path d="m429.5 767h2.9v14.8h-2.9v-14.8m7.2 14.8l-4.3-6 3.9-4.3h3.3l-4.1 4.3 4.7 6h-3.5"/><path d="m69.1 771.9c-1 0-1.6.4-2.5.6v7.4c.6 0 1 0 1.6 0 2.3 0 2.7-1 2.7-2.5v-3.4c.3-1.2-.2-2.1-1.8-2.1m-15.6-.4c-1.6 0-2.1.8-2.1 2.1v.6h3.9v-.6c.2-1.3-.2-2.1-1.8-2.1m-30 7.6c0 .8.4 1.2 1.2 1.2 1 0 1.6-.4 2.3-.6v-1.6h-2.1c-1 0-1.4.2-1.4 1m60.8-7.2c-1.6 0-2.3.8-2.3 2.1v4.1c0 1 .6 2.1 2.3 2.1s2.3-.8 2.3-2.1v-4.1c-.2-1.2-.7-2.1-2.3-2.1m-68.8 11.7h-4.7v-11.5h-2.5v-3.9h2.5v-2.5c0-3.3 1.4-5.1 5.1-5.1h3.3v3.9h-2.1c-1.4 0-1.6.6-1.6 1.6v2.1h3.7l-.4 3.9h-3.3v11.5zm16.4 0h-3.9l-.2-1c-1.8 1-3.5 1.2-4.5 1.2-2.9 0-4.5-1.8-4.5-4.7 0-3.1 1.8-4.3 5.1-4.3h3.3v-.6c0-1.6-.2-2.1-2.7-2.1h-4.1l.4-3.9h4.5c5.5 0 6.8 1.6 6.8 6.2-.2-.2-.2 9.2-.2 9.2m13.6-11.3c-2.5-.4-3.3-.6-4.3-.6-2.1 0-2.9.4-2.9 2.3v3.5c0 1.8.6 2.3 2.9 2.3 1.2 0 1.8 0 4.3-.6v3.9c-2.3.4-3.5.6-4.7.6-5.1 0-7.2-2.7-7.2-6.6v-2.9c0-3.9 2.1-6.6 7.2-6.6 1.2 0 2.7.2 4.7.6v4.1m14.8 5h-8.8v.4c0 1.8.6 2.3 2.9 2.3 1.8 0 3.1 0 5.5-.6v3.9c-2.5.4-3.7.6-6 .6-5.1 0-7.2-2.7-7.2-6.6v-3.3c0-3.5 1.4-6.2 6.8-6.2 5.3 0 6.8 2.7 6.8 6.2 0 0 0 3.3 0 3.3m15.6 0c0 3.7-1 6.6-7.6 6.6-2.3 0-3.7-.2-6.4-.6v-21.6l4.7-.8v7.6c1-.4 2.5-.6 3.5-.6 4.7 0 5.5 2.1 5.5 5.5v3.9h.3m15.4.2c0 3.3-1.4 6.4-7 6.4s-7-3.1-7-6.4v-3.1c0-3.3 1.4-6.4 7-6.4s7 3.1 7 6.4v3.1m15.2 0c0 3.3-1.4 6.4-7 6.4s-7-3.1-7-6.4v-3.1c0-3.3 1.4-6.4 7-6.4s7 3.1 7 6.4v3.1m15.8 6.1h-5.3l-4.3-7.4v7.4h-4.7v-22l4.7-.8v14.2l4.3-7h5.1l-4.7 7.6 4.9 8m-22.8-11.7c-1.6 0-2.3.8-2.3 2.1v4.1c0 1 .6 2.1 2.3 2.1s2.3-.8 2.3-2.1v-4.1c0-1.2-.7-2.1-2.3-2.1"/><path d="m187 776.7c-.6.2-1.2.4-1.8.6v1.4c.8-.2 1.8-.4 2.7-.6l-.9-1.4"/><path d="m197 776v-.4c-.4-.6-.8-1.2-1.2-1.8-1.2.4-2.3.6-3.5 1v2.1c1.7-.2 3.3-.7 4.7-.9"/><path d="m196.8 773.6c.2.4.4.8.6 1.2l.4-1.4c-.3 0-.8.2-1 .2"/><path d="m241.2 748.7c-4.3 4.1-8.2 7.6-12.1 10.5-3.5-5.1-8.6-9-15-10.9-14.8-4.3-30.2 4.1-34.5 18.9-1.2 4.3-1.4 8.8-.6 13.1-1.8 1-3.7 2.1-5.3 3.3 1.6-1 3.5-1.8 5.5-2.7 1 5.1 3.7 9.9 7.2 13.6-2.9 2.5-4.9 4.3-4.9 5.1l6-4.1c3.1 2.9 6.8 5.1 11.1 6.4 14.8 4.3 30.2-4.1 34.5-18.9 2.1-6.6 1.2-13.6-1.4-19.3 5.4-5.3 9.1-10.3 9.5-15m-30.4 3.3c0 0 0-.2 0 0l.4-2.3.2 2.1c0 0 .2 0 .2.2l1.4.2-1.6.2c0 .2 0 .2-.2.2l-.2 2.3-.2-2.3-.2-.2h-1.4l1.6-.4m.6 6.2c0 .2-.2.4-.4.2-.2 0-.2-.2-.2-.4s.2-.4.4-.2c.2 0 .4.2.2.4m-3.7-2.1c0 .2-.2.2-.2.2l-.2-.2.2-.2c0 0 .2.2.2.2m-.4-3.5l.2.2-.2.2c0 0-.2-.2 0-.2-.2-.2 0-.2 0-.2m-1.4-3.5c.2 0 .2.2.2.4s-.2.2-.4.2-.2-.2-.2-.4c0-.2.2-.2.4-.2m-.8 5.4c.2 0 .2.2.2.4s-.2.2-.4.2-.2-.2-.2-.4c-.1-.2.2-.2.4-.2m-.9-2.5c.2 0 .2.2.2.4s-.2.2-.4.2-.2-.2-.2-.4c0 0 .2-.2.4-.2m-2.2 3.3c.2 0 .2.2.2.2 0 .2-.2.2-.4.2-.2 0-.2-.2-.2-.4.2 0 .4 0 .4 0m-.8-.4c.2 0 .2.2.2.2l-.2.2-.2-.2c-.1 0 .2-.2.2-.2m-.3 1.4c.2 0 .2.2.2.4s-.2.2-.4.2-.2-.2-.2-.4c.2-.2.2-.2.4-.2m-.4-1.8l.2.2c0 .2-.2.2-.2.2-.2 0-.2-.2-.2-.2 0-.2.2-.2.2-.2m-14.7 33c-.2 0-.2-.2-.2-.2l.2-.2c.2 0 .2.2.2.2 0 .2 0 .2-.2.2m2.6 1.5c-.2 0-.2-.2-.2-.4s.2-.2.4-.2.2.2.2.4c-.2.2-.4.4-.4.2m.2-1.7c-.2 0-.2-.2-.2-.4s.2-.2.4-.2.2.2.2.4-.2.4-.4.2m1.5 2.3c0 .2-.4.4-.6.2-.2 0-.4-.4-.2-.6 0-.2.4-.4.6-.4 0 .4.2.6.2.8m2.8-.8c-.2 0-.2-.2-.2-.4s.2-.2.4-.2.2.2.2.4-.2.2-.4.2m-4.1-9.1l-3.7-6.2v5.1l1 1h-3.5l.2-.4.6-1v-.6-7.4l-1-1.2h4.5l3.5 6h.2v-4.7l-1-1.2h3.5l-1 1.2v7.8l1.2 1.4h-4.5v.2m7.6 15.4c0 .2 0 .2-.2.2l-.2 1.2-.2-1.2-.2-.2-1-.2 1-.2c0 0 0-.2.2-.2l.2-1.2.4 1.2c0 0 .2 0 .2.2l1 .2-1.2.2m-1.6-3.2c0-.2.2-.2.4-.2s.2.2.2.4-.2.2-.4.2c-.2-.2-.4-.2-.2-.4m1-11.1c-.2 0-.2-.2-.2-.4s.2-.2.4-.2.2.2.2.2c-.2.4-.2.4-.4.4m.6 5.1c0 .2-.2.2-.4.2s-.2-.2-.2-.4.2-.2.4-.2c0 0 .2.2.2.4m1.1 3.7c0-.2.4-.4.6-.2.2 0 .4.4.2.6 0 .2-.2.4-.6.4-.2-.4-.2-.6-.2-.8m.6 3.1c-.2 0-.2-.2-.2-.2 0-.2.2-.2.2-.2.2 0 .2.2.2.2.2 0 0 .2-.2.2m6.3-.4c-.2 0-.4-.2-.2-.4 0-.2.2-.4.4-.2.2 0 .4.2.2.4.1 0-.2.2-.4.2m5.4-2.1c-.2 0-.2-.2-.2-.4s.2-.2.4-.2c.2 0 .2.2.2.4-.2.2-.4.2-.4.2m7.2-15.6c.6.6.8 1.4.8 2.3 0 1.8-2.3 3.1-4.3 3.1-1.8.2-2.5 0-3.5-.4-.4.2-.8.6-1.2.8v-.2-2.1c0-.4 0-1 0-1.4.2.4.4.6.8 1 0 0 .6.4 1.8.6 1.2.2 2.5.2 2.7-.6.2-.6 0-.8-.4-1 0 0-1.4-.6-1.6-.6 0 0-.2 0-.2-.2-1.2-.4-3.3-1.6-3.3-3.3 0-1.6 1.6-3.3 3.9-3.5.4 0 .6 0 1 0-3.7-4.7-8.2-8.6-11.9-10.5-6.2-2.9-9.7-.8-8.4 5.5.6 3.3 2.7 7.2 4.5 10.5l1.2-4.1c0 0-1.2-1.4-1.2-1.2h5.5l3.1 9 1 1 .4.4h-6.8l1-1.2-.4-1.2h-2.5c1.2 1.8 2.3 3.3 2.9 3.7.4.4.8.8 1.2 1l1.4 1.2c.8.6 1.4 1.2 1.8 1.4 1.2.8.6 1.6.4 1.8-.4.2-1.4 0-1.8-.8-.2-.2-.8-1-1.4-1.8l-1.2-1.4c-.6-.6-2.3-2.9-4.1-5.3l-.4 1.2 1 1.2h-3.8l1.4-1.2.8-2.9c-.8-1.2-1.6-2.5-2.1-3.5-1.8-3.5-5.3-12.5-1.2-15 4.1-2.3 10.1 1.2 16.2 7.2 1.4 1.4 3.1 3.1 4.3 4.9.6.2.8.4 1.2.4.4-.2.8-.6 1-.8 0 .6 0 1.2 0 1.8 0 .4 0 1 0 1.4-.4-.4-.6-.6-1-.8.4.6.8 1 1.2 1.6l.6 1c.8 1.4 1.6 2.9 2.3 4.5l2.3-8-.8-.8c-.2-.2-.4-.4-.4-.4h1 2.3 2.3l3.1 9 1.4 1.4h-6.6l1-1.2-.4-1.4h-3.3l-.4 1.4 1 1.2h-2.1c1 2.7 1.4 5.3 1.2 7.6-.6 5.3-7 3.9-9.2 2.3 4.7 1.6 6.6 1.4 7.8 0 1.4-1.8.8-3.5.4-6.8 0-.8-.4-1.8-.8-2.9h-1.4l1-.8c-.3-1-1.1-2.7-2.1-4.1-.2-.4-.4-.8-.6-1l-1.4-2.1-.2-.4c-.4 0-.8-.2-1-.2-.4 0-.6 0-.8.2-.4.2-.8.4-.8.6 0 .2 0 .2.2.4l.2.2c.6.4 1.6.6 2.7 1 .2.2.6.2.8.4-.4.1.7.5.9.9m1 10.9c-.2 0-.2-.2-.2-.4s.2-.2.4-.2.2.2.2.4c-.2.2-.4.2-.4.2m.4 3.1c0 .2-.2.2-.4.2-.2 0-.2-.2-.2-.4s.2-.2.4-.2c0 0 .2.2.2.4m1.2 6.1c0 .2-.4.4-.6.2-.2 0-.4-.4-.2-.6 0-.2.4-.4.6-.2 0 0 .2.4.2.6m3.9-12.7c0-.2.2-.2.2-.2.2 0 .2.2.2.2l-.2.2c-.2 0-.4 0-.2-.2m.7 5.7c.2 0 .2.2.2.4s-.2.2-.4.2-.2-.2-.2-.4.2-.2.4-.2m-.2-4.3c0-.2.2-.2.4-.2.2 0 .2.2.2.4s-.2.2-.4.2c-.2-.2-.2-.2-.2-.4m1.2 6.2l-.2.2-.2.8-.2-.8-.2-.2h-.8l.8-.2c0 0 0-.2.2-.2l.2-.8.2.8c0 0 0 0 .2.2l.8.2h-.8m1 .2c-.2 0-.2-.2-.2-.4s.2-.2.4-.2.2.2.2.4c0 .2-.2.2-.4.2m.4-3.9c-.2 0-.2-.2-.2-.4s.2-.2.4-.2.2.2.2.4-.2.4-.4.2m1.5-.4c-.2 0-.4-.2-.2-.4 0-.2.2-.4.4-.2.2 0 .2.2.2.4 0 0-.2.2-.4.2m-.5-2.3c0 0 0 .2-.2.2l-.2 1.4-.2-1.4-.2-.2-1.2-.2 1.2-.2c0 0 0-.2.2-.2l.2-1.4.2 1.4c0 0 .2 0 .2.2l1 .2-1 .2m-7.6.8c-.2 0-.4-.4-.4-.6 0-.2.4-.4.6-.4.2 0 .4.4.4.6s-.3.7-.6.4m.5 1.9c0 .2-.2.4-.4.2-.2 0-.2-.2-.2-.4s.2-.4.4-.2c.2 0 .2.2.2.4m-20.6-25.7l-1 .2c0 0 0 .2-.2.2l-.2 1.8-.2-1.8-.2-.2h-1l1-.2c0 0 0-.2.2-.2l.2-1.4.2 1.4c0 0 .2 0 .2.2h1m-2.9 1.3c0 .2-.2.2-.4.2s-.2-.2-.2-.4.2-.2.4-.2c0 .2.2.4.2.4m-1-1.3l-.2.2-.2-.2.2-.2c.2 0 .2 0 .2.2"/><path d="m199.9 772.8c0 0-.2 0-.4 0-.2.8-.6 2.3-.8 2.9.6-.2 1.4-.4 2.1-.4l-.9-2.5"/><path d="m198.7 775.8h2.3l-1.2-3.7-1.1 3.7"/><path d="m222.1 775.8h2.3l-1.2-3.7c-.1.2-.9 3.7-1.1 3.7"/></g></svg>