<?xml version="1.0" encoding="utf-8"?>
<!-- Generator: Adobe Illustrator 17.1.0, SVG Export Plug-In . SVG Version: 6.00 Build 0)  -->
<!DOCTYPE svg PUBLIC "-//W3C//DTD SVG 1.1//EN" "http://www.w3.org/Graphics/SVG/1.1/DTD/svg11.dtd">
<svg version="1.1" id="Layer_1" xmlns="http://www.w3.org/2000/svg" xmlns:xlink="http://www.w3.org/1999/xlink" x="0px" y="0px"
	 viewBox="678.8 747.2 561.1 55.9" enable-background="new 678.8 747.2 561.1 55.9" xml:space="preserve">
<path fill="#8C8C8C" d="M215.5,769.7L215.5,769.7L215.5,769.7L215.5,769.7z"/>
<g>
	<g>
		<path fill="#8C8C8C" d="M564.9,788.8v3.1h0.2c0.6,0.2,1.4,0.2,2.1,0.2c0.6,0,1.2,0,1.8,0s1.2-0.2,1.6-0.4c0.6-0.2,1.2-0.6,1.8-1
			c0.4-0.4,0.8-0.8,1-1.4c0.4-1,0.4-2.1,0-3.1c-0.2-0.4-0.6-1-1-1.2c-0.4-0.4-0.8-0.6-1.4-0.8l-2.3-0.8c-0.2-0.2-0.4-0.4-0.6-0.6
			c0-0.2,0-0.4,0-0.6c0,0,0-0.2,0.2-0.2l0.2-0.2c0,0,0,0,0.2,0c0.2-0.2,0.6-0.2,0.8-0.2c0.4,0,1,0,1.4,0c0.6,0,1,0.2,1.6,0.2h0.2
			v-2.9h-0.2c-0.6-0.2-1.2-0.2-1.6-0.2c-0.8,0-1.4,0-2.3,0c-1,0-1.8,0.4-2.7,1c-0.4,0.4-0.8,0.8-1,1.4c-0.4,0.8-0.4,1.8,0,2.9
			c0.2,0.4,0.4,0.8,0.8,1.2c0.2,0.2,0.6,0.6,1,0.8c0.4,0.2,1,0.4,1.6,0.6c0.2,0,0.4,0.2,0.6,0.2h0.2l0,0c0.2,0,0.4,0.2,0.6,0.4
			c0.2,0.2,0.2,0.2,0.4,0.4c0,0.2,0,0.4,0,0.4c0,0.2-0.2,0.4-0.6,0.6c-0.2,0.2-0.6,0.2-0.8,0.2c-0.4,0-0.8,0-1.4,0
			c-0.6,0-1.2-0.2-1.8-0.2C565.5,789,565.3,788.8,564.9,788.8L564.9,788.8"/>
		<path fill="#8C8C8C" d="M552.5,791.6v-3.5l0,0c-0.8,0.4-1.6,0.6-2.5,0.6c-0.8,0-1.8-0.2-2.5-0.8c-0.6-0.4-0.8-1-1-1.6
			s-0.2-1.4,0-2.1s0.6-1.4,1-1.8c0.4-0.4,1-0.6,1.8-0.8c1.2-0.2,2.3,0,3.3,0.6l0,0v-3.1h-0.2c-1-0.4-2.1-0.4-3.1-0.4
			s-1.8,0.2-2.9,0.6c-0.8,0.4-1.6,1-2.3,1.8c-2.1,2.5-2.1,6-0.2,8.4c1,1.2,2.3,2.1,3.7,2.5c1.6,0.4,3.1,0.4,4.7-0.2L552.5,791.6"/>
		<polyline fill="#8C8C8C" points="560.3,791.9 560.3,778.7 557.1,778.7 557.1,791.9 560.3,791.9 		"/>
		<path fill="#8C8C8C" d="M535.7,768.2c0,0.4,0.2,0.8,0.6,1s0.6,0.4,1,0.4s0.8-0.2,1-0.4s0.4-0.6,0.6-1v-3.7c0-0.4-0.2-0.8-0.4-1
			c-0.2-0.2-0.6-0.4-1.2-0.4c-0.4,0-0.8,0.2-1.2,0.4c-0.2,0.2-0.4,0.6-0.4,1L535.7,768.2"/>
		<path fill="#8C8C8C" d="M544.7,768.2c0,0.4,0.2,0.8,0.6,1c0.2,0.2,0.6,0.4,1,0.4s0.8-0.2,1-0.4s0.4-0.6,0.6-1V760
			c0-0.4-0.2-0.8-0.4-1s-0.6-0.4-1.2-0.4c-0.4,0-0.8,0.2-1.2,0.4c-0.2,0.2-0.4,0.6-0.4,1L544.7,768.2"/>
		<path fill="#8C8C8C" d="M553.8,771.5c0,0.4,0.2,0.8,0.6,1c0.2,0.2,0.6,0.4,1,0.4s0.8-0.2,1-0.4s0.4-0.6,0.6-1v-17.7
			c0-0.4-0.2-0.8-0.4-1s-0.6-0.4-1.2-0.4c-0.4,0-0.8,0.2-1.2,0.4c-0.2,0.2-0.4,0.6-0.4,1L553.8,771.5"/>
		<path fill="#8C8C8C" d="M562.8,768.2c0,0.4,0.2,0.8,0.6,1c0.2,0.2,0.6,0.4,1,0.4s0.8-0.2,1-0.4s0.4-0.6,0.6-1V760
			c0-0.4-0.2-0.8-0.4-1s-0.6-0.4-1.2-0.4c-0.4,0-0.8,0.2-1.2,0.4c-0.2,0.2-0.4,0.6-0.4,1L562.8,768.2"/>
		<path fill="#8C8C8C" d="M571.8,768.2c0,0.4,0.2,0.8,0.6,1c0.4,0.2,0.6,0.4,1,0.4s0.8-0.2,1-0.4s0.4-0.6,0.6-1v-3.7
			c0-0.4-0.2-0.8-0.4-1c-0.2-0.2-0.6-0.4-1.2-0.4c-0.4,0-0.8,0.2-1.2,0.4c-0.2,0.2-0.4,0.6-0.4,1L571.8,768.2"/>
		<path fill="#8C8C8C" d="M580.9,768.2c0,0.4,0.2,0.8,0.6,1c0.2,0.2,0.6,0.4,1,0.4s0.8-0.2,1-0.4s0.4-0.6,0.6-1V760
			c0-0.4-0.2-0.8-0.4-1s-0.6-0.4-1.2-0.4c-0.4,0-0.8,0.2-1.2,0.4c-0.2,0.2-0.4,0.6-0.4,1L580.9,768.2"/>
		<path fill="#8C8C8C" d="M589.7,771.5c0,0.4,0.2,0.8,0.6,1c0.2,0.2,0.6,0.4,1,0.4s0.8-0.2,1-0.4c0.2-0.2,0.4-0.6,0.6-1v-17.7
			c0-0.4-0.2-0.8-0.4-1s-0.6-0.4-1.2-0.4c-0.4,0-0.8,0.2-1.2,0.4c-0.2,0.2-0.4,0.6-0.4,1L589.7,771.5"/>
		<path fill="#8C8C8C" d="M598.7,768.2c0,0.4,0.2,0.8,0.6,1c0.2,0.2,0.6,0.4,1,0.4s0.8-0.2,1-0.4s0.4-0.6,0.6-1V760
			c0-0.4-0.2-0.8-0.4-1s-0.6-0.4-1.2-0.4c-0.4,0-0.8,0.2-1.2,0.4c-0.2,0.2-0.4,0.6-0.4,1L598.7,768.2"/>
		<path fill="#8C8C8C" d="M607.8,768.2c0,0.4,0.2,0.8,0.6,1c0.2,0.2,0.6,0.4,1,0.4s0.8-0.2,1-0.4s0.4-0.6,0.6-1v-3.7
			c0-0.4-0.2-0.8-0.4-1c-0.2-0.2-0.6-0.4-1.2-0.4c-0.4,0-0.8,0.2-1.2,0.4c-0.2,0.2-0.4,0.6-0.4,1L607.8,768.2"/>
		<path fill="#8C8C8C" d="M587,791.6v-3.5l0,0c-0.8,0.4-1.6,0.6-2.5,0.6c-0.8,0-1.8-0.2-2.5-0.8c-0.6-0.4-0.8-1-1-1.6
			s-0.2-1.4,0-2.1s0.6-1.4,1-1.8c0.4-0.4,1-0.6,1.8-0.8c1.2-0.2,2.3,0,3.3,0.6l0,0v-3.1H587c-1-0.4-2.1-0.4-3.1-0.4
			s-1.8,0.2-2.9,0.6c-0.8,0.4-1.6,1-2.3,1.8c-2.1,2.5-2.1,6-0.2,8.4c1,1.2,2.3,2.1,3.7,2.5c1.6,0.4,3.1,0.4,4.7-0.2L587,791.6"/>
		<path fill="#8C8C8C" d="M590.5,785.3c0,2.1,1,4.1,2.7,5.3c1.6,1.2,3.7,1.8,5.8,1.2c2.7-0.6,4.9-2.7,5.3-5.3s-0.8-5.5-3.1-7
			c-2.1-1.2-4.7-1.4-7-0.2C592,780.6,590.5,782.8,590.5,785.3 M595.3,782.6c0.6-0.6,1.6-0.8,2.5-0.8c0.8,0,1.6,0.6,2.3,1.2
			c0.6,0.6,0.8,1.6,0.8,2.5c0,0.8-0.6,1.6-1.2,2.3c-0.6,0.6-1.6,0.8-2.5,0.8c-0.8,0-1.6-0.6-2.3-1.2c-0.6-0.6-0.8-1.6-0.8-2.5
			S594.6,783.2,595.3,782.6"/>
	</g>
	<g>
		<g>
			<g>
				<path fill="#8C8C8C" d="M865.3,765.2c-10.9,0-11.3,8.4-11.1,10.7c0,0-0.6,9.9,10.9,9.9c9.9,0,10.3-6.2,10.3-6.2h-4.5
					c0,0-0.8,3.5-5.8,3.3c-6.4-0.2-6.6-6.2-6.6-6.2H876C876,776.5,877.4,765.2,865.3,765.2z M858.7,773.6c0,0,0.4-5.5,6.6-5.5
					s6.2,5.5,6.2,5.5H858.7z"/>
			</g>
		</g>
		<g>
			<g>
				<path fill="#8C8C8C" d="M888.1,765.2c-5.3,0-7.8,3.3-7.8,3.3v-10.9H876v23c0,0,0,2.7-0.2,4.5h4.3l0.2-2.7c0,0,2.1,3.3,7.8,3.3
					s10.3-3.5,10.5-10.1C898.6,768.9,893.7,765.2,888.1,765.2z M887.1,782.6c-6.8,0-6.8-7.2-6.8-7.2s-0.2-7.2,6.8-7.2
					c7-0.2,6.8,7.4,6.8,7.4S894.1,782.4,887.1,782.6z"/>
			</g>
		</g>
		<g>
			<g>
				<path fill="#8C8C8C" d="M918.7,780.4c0-2.9,0-5.5,0-7.6c-0.2-2.3,0-7.4-9.2-7.8c0,0-9-0.8-9.9,6h4.5c0,0,0.4-3.1,4.9-3.1
					c4.5,0,5.1,2.3,5.1,4.9c0,0-3.7,0-5.1,0c-2.3,0-10.3,0.2-11.1,5.1c-0.8,5.8,4.3,7.6,8.2,7.6c4.1,0,6.4-1.2,8-3.5l0.2,2.7h4.1
					C918.7,784.9,918.5,783.2,918.7,780.4z M907.2,782.8c0,0-4.3,0-4.7-3.5c-0.2-3.7,6.8-3.5,6.8-3.5h4.9
					C914.2,775.8,915,782.8,907.2,782.8z"/>
			</g>
		</g>
		<polygon fill="#8C8C8C" points="916.2,765.8 921.4,765.8 928.8,780.6 936.2,765.8 940.7,765.8 927.3,792.1 922.4,792.1 
			926.3,784.9 		"/>
	</g>
	<g>
		<polygon fill="#8C8C8C" points="1003.1,784.3 1015.2,784.3 1015.2,780.4 1007.6,780.4 1007.6,765.8 1003.1,765.8 		"/>
		<path fill="#8C8C8C" d="M1021.2,784.3v-12.9h-4.3v12.9H1021.2L1021.2,784.3z M1019.1,769.5c1.4,0,2.5-1,2.5-2.3s-1-2.3-2.5-2.3
			s-2.5,1-2.5,2.3C1016.7,768.4,1017.5,769.5,1019.1,769.5L1019.1,769.5L1019.1,769.5z"/>
		<path fill="#8C8C8C" d="M1023.2,784.3h4.3v-7.2c0-0.4,0-0.8,0.2-1c0.4-0.8,1-1.6,2.3-1.6c1.6,0,2.3,1.2,2.3,2.9v7h4.3v-7.4
			c0-3.9-2.1-6-4.9-6c-2.3,0-3.3,1.2-3.9,2.3l0,0v-1.8h-4.3C1023.2,772.5,1023.2,784.3,1023.2,784.3L1023.2,784.3z"/>
		<path fill="#8C8C8C" d="M1042.6,765.8h-4.3v18.5h4.3v-4.3l1-1.4l3.3,5.5h5.3l-5.8-8l4.9-5.5h-5.1c0,0-3.5,4.9-3.9,5.5
			L1042.6,765.8L1042.6,765.8z"/>
		<path fill="#8C8C8C" d="M1063.9,778.9c0-0.4,0.2-1,0.2-1.6c0-3.3-1.6-6.8-6.2-6.8c-4.7,0-7,3.9-7,7.2c0,4.3,2.7,7,7.4,7
			c1.8,0,3.7-0.2,5.1-0.8l-0.6-2.9c-1.2,0.4-2.5,0.6-3.9,0.6c-2.1,0-3.7-0.8-3.9-2.7L1063.9,778.9L1063.9,778.9z M1054.9,775.8
			c0.2-1,0.8-2.7,2.7-2.7c2.1,0,2.5,1.8,2.5,2.7H1054.9L1054.9,775.8z"/>
		<path fill="#8C8C8C" d="M1074.8,765.8v6.2l0,0c-0.6-0.8-1.8-1.4-3.7-1.4c-3.3,0-6.2,2.7-6.2,7.2c0,4.3,2.7,7,6,7
			c1.8,0,3.5-0.8,4.3-2.3l0,0l0.2,2.1h3.9c0-0.8-0.2-2.5-0.2-4.1V766h-4.3V765.8z M1074.8,778.3c0,0.4,0,0.6,0,1
			c-0.2,1.2-1.2,2.1-2.5,2.1c-1.8,0-2.9-1.4-2.9-3.7c0-2.1,1-3.9,3.1-3.9c1.4,0,2.3,0.8,2.5,2.1c0,0.2,0,0.6,0,0.8L1074.8,778.3
			L1074.8,778.3z"/>
		<g>
			<path fill="#8C8C8C" d="M1098.8,773.2L1098.8,773.2L1098.8,773.2L1098.8,773.2z"/>
			<path fill="#8C8C8C" d="M1109.9,759.8h-24.4c-1.4,0-2.5,1-2.5,2.5v24.6c0,1.4,1,2.5,2.5,2.5h24.4c1.4,0,2.5-1,2.5-2.5v-24.6
				C1112.4,760.8,1111.4,759.8,1109.9,759.8z M1092,784.3h-4.3v-12.9h4.3V784.3z M1090,769.5L1090,769.5c-1.4,0-2.5-1-2.5-2.3
				s1-2.3,2.5-2.3s2.5,1,2.5,2.3S1091.4,769.5,1090,769.5z M1107.7,784.3h-4.3v-7c0-1.8-0.6-2.9-2.3-2.9c-1.2,0-1.8,0.8-2.3,1.6
				c-0.2,0.2-0.2,0.6-0.2,1v7.2h-4.1c0,0,0-11.7,0-12.9h4.3v1.8c0.6-0.8,1.6-2.1,3.9-2.1c2.9,0,4.9,1.8,4.9,6V784.3L1107.7,784.3z"
				/>
		</g>
	</g>
	<g>
		<path fill="#8C8C8C" d="M1181.2,775.2c0-10.7,13.1-19.1,29.4-19.1s29.4,8.4,29.4,19.1c0,10.5-13.1,18.9-29.4,18.9
			C1194.3,794.1,1181.2,785.7,1181.2,775.2L1181.2,775.2z M1210.7,758.6c4.7,0,6.2,8.8,6.6,11.7c6.2-0.8,10.5-3.1,10.5-5.8
			C1227.8,761.3,1220.4,758.6,1210.7,758.6L1210.7,758.6z M1210.5,758.6c-12.1,0-26.7,8.4-6.8,11.7
			C1205,763.5,1207.5,758.6,1210.5,758.6L1210.5,758.6z M1212.6,792.3c13.1-0.6,23.4-8.4,23.4-17.9c0-3.1-1-6.2-3.1-8.6
			c-0.2,4.3-6.4,7.8-15,9.2c0,0.2,0,0.4,0,0.8C1217.9,783.6,1215.5,790.2,1212.6,792.3L1212.6,792.3z M1210.5,786.3
			c2.3,0,4.5-4.9,4.5-11.1c-1.4,0.2-2.9,0.2-4.5,0.2c-1.6,0-2.9,0-4.5-0.2C1206.4,781.4,1208.3,786.3,1210.5,786.3L1210.5,786.3z
			 M1208.7,792.3c-2.9-1.8-5.3-8.4-5.3-16.2c0-0.4,0-0.6,0-0.8c-8.6-1.4-14.8-5.1-15-9.2c-2.1,2.5-3.1,5.5-3.1,8.6
			C1185.3,783.6,1195.6,791.4,1208.7,792.3L1208.7,792.3z M1210.5,770.5c1.4,0,2.7,0,4.1,0c-0.6-4.3-2.1-7.2-4.1-7.2
			c-1.8,0-3.3,2.9-4.1,7.2C1207.9,770.5,1209.1,770.5,1210.5,770.5L1210.5,770.5z"/>
	</g>
	<g>
		<path fill="#8C8C8C" d="M445.7,756.3h25.7V782h-25.7V756.3z M449.4,778.3h18.5v-18.5h-18.5V778.3z"/>
		<polygon fill="#8C8C8C" points="451.5,775.6 456,775.6 465.9,762.5 461.2,762.5 		"/>
		<g>
			<path fill="#8C8C8C" d="M294.4,769.3h-1.6v10.3h1.6c4.1,0,5.3-1.8,5.3-5.1C299.7,770.9,297.9,769.3,294.4,769.3 M294.8,781.8
				h-4.9V767h4.9c5.1,0,8,2.5,8,7.4C302.8,779.3,300.3,781.8,294.8,781.8"/>
			<path fill="#8C8C8C" d="M309.6,771.3c-3.9,0-5.3,2.9-5.3,5.3c0,3.1,1.6,5.3,4.9,5.5c2.7,0,4.9-0.8,5.1-3.7h-2.7
				c0,1.2-1,1.8-2.1,1.8c-1.8,0-2.5-1.4-2.5-3.1h7.4C314.7,774.2,313.5,771.3,309.6,771.3 M307.1,775.6c0-1.4,0.8-2.7,2.3-2.7
				s2.3,1,2.3,2.7H307.1z"/>
			<path fill="#8C8C8C" d="M326.6,781.8h-2.9v-1.6c-0.4,1.2-1.8,2.1-3.3,2.1c-1.8,0-3.7-1.2-3.7-3.9v-6.8h2.9v6.4
				c0,1.4,0.6,2.3,2.1,2.3c1.2,0,2.3-0.6,2.3-2.7v-6h2.9v10.3H326.6z"/>
			<path fill="#8C8C8C" d="M330.3,771.7v-1.6l2.7-1.4v3.1h2.7v2.1H333v4.9c0,1,0.4,1.6,1.4,1.6c0.4,0,0.8,0,1.2-0.2v1.8
				c-1.4,0.2-2.9,0.6-4.1-0.2c-1-0.6-1.2-1.4-1.2-2.9v-5.1h-2.3v-2.1L330.3,771.7L330.3,771.7z"/>
			<path fill="#8C8C8C" d="M346.4,777.5c0.4,0.8,0.4,2.1-0.2,2.9c-1,1.4-3.1,1.8-4.7,1.8c-2.3-0.2-4.3-0.8-4.3-3.5h2.9
				c0,1.2,0.8,1.6,1.8,1.6s2.1-0.4,2.1-1.2s-0.8-1-1.6-1.2c-1-0.2-1.8-0.4-3.1-0.8c-1-0.4-1.8-1.2-1.8-2.7c0-1.2,1-2.1,2.1-2.7
				c0.8-0.4,1.8-0.4,2.7-0.4c2.1,0,4.1,0.6,3.9,3.1h-2.7c0-0.4,0-0.8-0.4-1c-0.6-0.4-2.3-0.6-2.9,0.2c-0.6,1.4,1.2,1.6,3.5,2.1
				C344.9,776,345.9,776.7,346.4,777.5"/>
			<path fill="#8C8C8C" d="M353.3,771.3c2.3,0,4.5,1,4.5,3.9h-2.7c0-1.2-0.8-2.1-2.1-2.1c-0.4,0-0.8,0.2-1,0.2c-0.8,0.4-1,1.8-1,3.3
				c0,1.4,0.4,2.9,1,3.5c0.4,0.4,1.2,0.6,1.8,0.4c1-0.2,1.4-1.2,1.4-2.3h2.7c0,2.9-2.5,4.1-4.9,4.1c-3.3-0.2-4.9-2.3-4.9-5.5
				C348.2,773.4,350,771.3,353.3,771.3"/>
			<path fill="#8C8C8C" d="M360.1,767h2.9v6.2c0.8-1.2,1.8-1.8,3.3-1.8c1.8,0,3.7,1.4,3.7,3.5v7h-2.9v-6.4c0-1.4-0.6-2.3-1.8-2.3
				c-1.2,0-2.3,0.8-2.3,2.7v6h-2.9L360.1,767L360.1,767z"/>
			<path fill="#8C8C8C" d="M377.4,771.3c-3.9,0-5.3,2.9-5.3,5.3c0,3.1,1.6,5.3,4.9,5.5c2.7,0,4.9-0.8,5.1-3.7h-2.7
				c0,1.2-1,1.8-2.1,1.8c-1.8,0-2.5-1.4-2.5-3.1h7.4C382.7,774.2,381.3,771.3,377.4,771.3 M375.1,775.6c0-1.4,0.8-2.7,2.3-2.7
				c1.4,0,2.3,1,2.3,2.7H375.1z"/>
			<path fill="#8C8C8C" d="M397.1,775.4h-3.3v4.3h3.1c2.1,0,2.7-1,2.7-2.3C399.7,776.5,398.9,775.2,397.1,775.4 M396.7,769.3h-2.9
				v3.9h2.9c1.6,0,2.3-0.6,2.3-1.8C399.1,770.1,398.3,769.3,396.7,769.3 M400,781.4c-1,0.4-2.3,0.4-3.5,0.4h-5.3V767h5.8
				c2.5,0,5.1,0.8,5.3,3.7c0,1.8-1.2,2.9-2.7,3.5c1.2,0.4,2.3,0.6,2.9,1.8c0.6,1,0.6,2.3,0.2,3.3C401.8,780.4,401.2,781,400,781.4"
				/>
			<path fill="#8C8C8C" d="M414.1,774.4c0-2.1-2.3-3.1-4.9-3.1c-2.5,0-4.3,0.8-4.3,3.3h2.7c0-1,0.6-1.6,1.6-1.6
				c1.4,0,2.3,0.6,2.1,2.5c-1.4,0-3.5,0-4.9,0.6c-1,0.6-1.8,1.4-1.8,3.1c0,2.1,1.4,3.1,3.5,3.3c1.4,0.2,3.1-0.4,3.7-1.8l0.2,1.4h2.5
				L414.1,774.4L414.1,774.4z M409,780.4c-1,0-1.6-0.6-1.6-1.6c0-2.3,2.7-1.8,4.1-1.8C411.5,778.5,411.5,780.4,409,780.4"/>
			<path fill="#8C8C8C" d="M416.8,771.5h2.9v1.6c0.8-1.4,2.1-1.8,3.7-1.8c1.6,0,3.5,1,3.5,3.5v7H424v-6.4c0-1.2-0.6-2.3-1.8-2.3
				c-1.2,0-2.3,0.8-2.3,2.7v6h-3.1V771.5z"/>
		</g>
		<path fill="#8C8C8C" d="M429.5,767h2.9v14.8h-2.9V767z M436.7,781.8l-4.3-6l3.9-4.3h3.3l-4.1,4.3l4.7,6H436.7z"/>
	</g>
	<path fill="#8C8C8C" d="M69.1,771.9c-1,0-1.6,0.4-2.5,0.6v7.4c0.6,0,1,0,1.6,0c2.3,0,2.7-1,2.7-2.5V774
		C71.2,772.8,70.7,771.9,69.1,771.9 M53.5,771.5c-1.6,0-2.1,0.8-2.1,2.1v0.6h3.9v-0.6C55.5,772.3,55.1,771.5,53.5,771.5 M23.5,779.1
		c0,0.8,0.4,1.2,1.2,1.2c1,0,1.6-0.4,2.3-0.6v-1.6h-2.1C23.9,778.1,23.5,778.3,23.5,779.1 M84.3,771.9c-1.6,0-2.3,0.8-2.3,2.1v4.1
		c0,1,0.6,2.1,2.3,2.1s2.3-0.8,2.3-2.1V774C86.4,772.8,85.9,771.9,84.3,771.9 M15.5,783.6h-4.7v-11.5H8.3v-3.9h2.5v-2.5
		c0-3.3,1.4-5.1,5.1-5.1h3.3v3.9h-2.1c-1.4,0-1.6,0.6-1.6,1.6v2.1h3.7l-0.4,3.9h-3.3V783.6L15.5,783.6z M31.9,783.6H28l-0.2-1
		c-1.8,1-3.5,1.2-4.5,1.2c-2.9,0-4.5-1.8-4.5-4.7c0-3.1,1.8-4.3,5.1-4.3h3.3v-0.6c0-1.6-0.2-2.1-2.7-2.1h-4.1l0.4-3.9h4.5
		c5.5,0,6.8,1.6,6.8,6.2C31.9,774.2,31.9,783.6,31.9,783.6z M45.5,772.3c-2.5-0.4-3.3-0.6-4.3-0.6c-2.1,0-2.9,0.4-2.9,2.3v3.5
		c0,1.8,0.6,2.3,2.9,2.3c1.2,0,1.8,0,4.3-0.6v3.9c-2.3,0.4-3.5,0.6-4.7,0.6c-5.1,0-7.2-2.7-7.2-6.6v-2.9c0-3.9,2.1-6.6,7.2-6.6
		c1.2,0,2.7,0.2,4.7,0.6V772.3z M60.3,777.3h-8.8v0.4c0,1.8,0.6,2.3,2.9,2.3c1.8,0,3.1,0,5.5-0.6v3.9c-2.5,0.4-3.7,0.6-6,0.6
		c-5.1,0-7.2-2.7-7.2-6.6V774c0-3.5,1.4-6.2,6.8-6.2c5.3,0,6.8,2.7,6.8,6.2C60.3,774,60.3,777.3,60.3,777.3z M75.9,777.3
		c0,3.7-1,6.6-7.6,6.6c-2.3,0-3.7-0.2-6.4-0.6v-21.6l4.7-0.8v7.6c1-0.4,2.5-0.6,3.5-0.6c4.7,0,5.5,2.1,5.5,5.5v3.9H75.9z
		 M91.3,777.5c0,3.3-1.4,6.4-7,6.4s-7-3.1-7-6.4v-3.1c0-3.3,1.4-6.4,7-6.4s7,3.1,7,6.4V777.5z M106.5,777.5c0,3.3-1.4,6.4-7,6.4
		s-7-3.1-7-6.4v-3.1c0-3.3,1.4-6.4,7-6.4s7,3.1,7,6.4V777.5z M122.3,783.6H117l-4.3-7.4v7.4h-4.7v-22l4.7-0.8V775l4.3-7h5.1
		l-4.7,7.6L122.3,783.6z M99.5,771.9c-1.6,0-2.3,0.8-2.3,2.1v4.1c0,1,0.6,2.1,2.3,2.1s2.3-0.8,2.3-2.1V774
		C101.8,772.8,101.1,771.9,99.5,771.9"/>
	<g>
		<path fill="#8C8C8C" d="M761.4,759h-3.9v26.3l3.3,3.1l3.9,0.4v-26.7l-3.1-3.1H761.4z M761.2,785.1c-1.6-0.2-2.7-0.2-2.7-0.2v-25.1
			h2.7V785.1z"/>
		<path fill="#8C8C8C" d="M721.6,759h-9.9v3.9c0,0,2.7,2.1,2.9,2.3c0,0.4,0,19.7,0,19.7l3.3,2.7h3.9c0,0,0-21.2,0-22.2
			c0.6,0,2.9,0,2.9,0v-2.9l-3.1-3.3C721.8,759,721.6,759,721.6,759z M721.4,762.3h-3.1V784c-2.1,0-2.7,0-2.7,0v-22h-2.9v-2.5h8.6
			L721.4,762.3L721.4,762.3z"/>
		<path fill="#8C8C8C" d="M686.6,759v0.6c0,0,0,1,0,1.8c-0.8-0.8-2.1-2.3-2.1-2.3h-5.8v28.5l3.3,2.7l3.5-0.4c0,0,0-1.4,0-2.5
			c1.2,1,2.7,2.3,2.7,2.3l5.8-0.6v-26.9l-3.1-2.9L686.6,759z M690.3,785.9c-3.7,0.4-4.7,0.4-4.7,0.4l-3.1-20.3h-0.2l0.2,20.7
			c-1.8,0.2-2.7,0.4-2.7,0.4v-27.3h4.3l3.3,21.8h0.2v-21.8h2.9L690.3,785.9L690.3,785.9z"/>
		<path fill="#8C8C8C" d="M780.7,775c0-0.2,2.3-12.9,2.3-12.9l-3.1-3.3h-4.1c0,0-0.2,1.2-0.4,2.3c-0.8-0.8-2.1-2.3-2.1-2.3H769
			l2.5,12.7c0,0.2-2.3,14.4-2.3,14.4l4.5,3.5l2.7,0.4c0,0,0-1.6,0-2.5c1,0.8,3.7,2.9,3.7,2.9l3.5,0.4
			C783.8,790.8,780.7,775.2,780.7,775z M779.5,786.9l-3.3-0.4l-1.4-11.9h-0.2l-1.4,11.5l-2.9-0.2l2.3-14l-2.3-12.1h3.1l1.6,9.7h0.2
			l1.4-9.7h3.1l-2.3,12.3L779.5,786.9z"/>
		<path fill="#8C8C8C" d="M750.7,780.8c0-1.6,0-18.9,0-18.9l-3.1-2.9h-4.1v25.7l3.3,2.9l7.4,0.4l-0.2-3.3
			C754.2,784.7,751.5,781.6,750.7,780.8z M750.7,784.5c-4.5-0.2-6.4-0.2-6.4-0.2v-24.4h2.7v22c3.1,0.2,3.5,0.2,3.5,0.2L750.7,784.5
			L750.7,784.5z"/>
		<path fill="#8C8C8C" d="M705.7,764.7c0.8,0,3.3,0,3.3,0v-2.7l-3.1-2.9h-0.2h-7.2v26.7l3.3,2.5l7.2-0.4v-2.9c0,0-2.9-3.3-3.3-3.5
			c0-0.4,0-3.9,0-4.7c0.8,0,3.3,0,3.3,0V774c0,0-2.9-3.1-3.3-3.3C705.7,769.9,705.7,765.6,705.7,764.7z M705.7,762.3h-3.5v8.8h3.5
			v2.5h-3.5v8.6l3.5-0.2v2.5c-4.7,0.2-6.4,0.4-6.4,0.4v-25.3h6.4V762.3z"/>
		<path fill="#8C8C8C" d="M735.9,764.7c0.8,0,3.3,0,3.3,0v-2.7l-3.1-2.9h-0.2h-7.2v25.5l3.3,2.7h3.9c0,0,0-9.9,0-10.7
			c0.8,0,3.3,0,3.3,0v-2.9c0,0-2.9-3.1-3.3-3.3C735.9,769.9,735.9,765.6,735.9,764.7z M735.7,762.3h-3.5v8.8h3.5v2.5h-3.5v10.3h-2.7
			v-24.2h6.4v2.7H735.7z"/>
	</g>
</g>
<path fill="#8C8C8C" d="M187,776.7c-0.6,0.2-1.2,0.4-1.8,0.6v1.4c0.8-0.2,1.8-0.4,2.7-0.6L187,776.7L187,776.7z"/>
<path fill="#8C8C8C" d="M197,776v-0.4c-0.4-0.6-0.8-1.2-1.2-1.8c-1.2,0.4-2.3,0.6-3.5,1v2.1C194,776.7,195.6,776.2,197,776L197,776z
	"/>
<path fill="#8C8C8C" d="M196.8,773.6c0.2,0.4,0.4,0.8,0.6,1.2l0.4-1.4C197.5,773.4,197,773.6,196.8,773.6L196.8,773.6z"/>
<path fill="#8C8C8C" d="M241.2,748.7c-4.3,4.1-8.2,7.6-12.1,10.5c-3.5-5.1-8.6-9-15-10.9c-14.8-4.3-30.2,4.1-34.5,18.9
	c-1.2,4.3-1.4,8.8-0.6,13.1c-1.8,1-3.7,2.1-5.3,3.3c1.6-1,3.5-1.8,5.5-2.7c1,5.1,3.7,9.9,7.2,13.6c-2.9,2.5-4.9,4.3-4.9,5.1l6-4.1
	c3.1,2.9,6.8,5.1,11.1,6.4c14.8,4.3,30.2-4.1,34.5-18.9c2.1-6.6,1.2-13.6-1.4-19.3C237.1,758.4,240.8,753.4,241.2,748.7z M210.8,752
	C210.8,752,210.8,751.8,210.8,752l0.4-2.3l0.2,2.1c0,0,0.2,0,0.2,0.2l1.4,0.2l-1.6,0.2c0,0.2,0,0.2-0.2,0.2l-0.2,2.3l-0.2-2.3
	l-0.2-0.2h-1.4L210.8,752z M211.4,758.2c0,0.2-0.2,0.4-0.4,0.2c-0.2,0-0.2-0.2-0.2-0.4s0.2-0.4,0.4-0.2
	C211.4,757.8,211.6,758,211.4,758.2z M207.7,756.1c0,0.2-0.2,0.2-0.2,0.2l-0.2-0.2l0.2-0.2C207.5,755.9,207.7,756.1,207.7,756.1z
	 M207.3,752.6l0.2,0.2l-0.2,0.2c0,0-0.2-0.2,0-0.2C207.1,752.6,207.3,752.6,207.3,752.6z M205.9,749.1c0.2,0,0.2,0.2,0.2,0.4
	s-0.2,0.2-0.4,0.2s-0.2-0.2-0.2-0.4C205.5,749.1,205.7,749.1,205.9,749.1z M205.1,754.5c0.2,0,0.2,0.2,0.2,0.4s-0.2,0.2-0.4,0.2
	s-0.2-0.2-0.2-0.4C204.6,754.5,204.9,754.5,205.1,754.5z M204.2,752c0.2,0,0.2,0.2,0.2,0.4s-0.2,0.2-0.4,0.2s-0.2-0.2-0.2-0.4
	C203.8,752.2,204,752,204.2,752z M202,755.3c0.2,0,0.2,0.2,0.2,0.2c0,0.2-0.2,0.2-0.4,0.2c-0.2,0-0.2-0.2-0.2-0.4
	C201.8,755.3,202,755.3,202,755.3z M201.2,754.9c0.2,0,0.2,0.2,0.2,0.2l-0.2,0.2l-0.2-0.2C200.9,755.1,201.2,754.9,201.2,754.9z
	 M200.9,756.3c0.2,0,0.2,0.2,0.2,0.4s-0.2,0.2-0.4,0.2s-0.2-0.2-0.2-0.4C200.7,756.3,200.7,756.3,200.9,756.3z M200.5,754.5l0.2,0.2
	c0,0.2-0.2,0.2-0.2,0.2c-0.2,0-0.2-0.2-0.2-0.2C200.3,754.5,200.5,754.5,200.5,754.5z M185.8,787.5c-0.2,0-0.2-0.2-0.2-0.2l0.2-0.2
	c0.2,0,0.2,0.2,0.2,0.2C186,787.5,186,787.5,185.8,787.5z M188.4,789c-0.2,0-0.2-0.2-0.2-0.4s0.2-0.2,0.4-0.2s0.2,0.2,0.2,0.4
	C188.6,789,188.4,789.2,188.4,789z M188.6,787.3c-0.2,0-0.2-0.2-0.2-0.4s0.2-0.2,0.4-0.2s0.2,0.2,0.2,0.4S188.8,787.5,188.6,787.3z
	 M190.1,789.6c0,0.2-0.4,0.4-0.6,0.2c-0.2,0-0.4-0.4-0.2-0.6c0-0.2,0.4-0.4,0.6-0.4C189.9,789.2,190.1,789.4,190.1,789.6z
	 M192.9,788.8c-0.2,0-0.2-0.2-0.2-0.4s0.2-0.2,0.4-0.2s0.2,0.2,0.2,0.4S193.1,788.8,192.9,788.8z M188.8,779.7l-3.7-6.2v5.1l1,1
	h-3.5l0.2-0.4l0,0l0.6-1v-0.6l0,0v-7.4l-1-1.2h4.5l3.5,6h0.2v-4.7l-1-1.2h3.5l-1,1.2v7.8l1.2,1.4h-4.5V779.7z M196.4,795.1
	c0,0.2,0,0.2-0.2,0.2l-0.2,1.2l-0.2-1.2l-0.2-0.2l-1-0.2l1-0.2c0,0,0-0.2,0.2-0.2l0.2-1.2l0.4,1.2c0,0,0.2,0,0.2,0.2l1,0.2
	L196.4,795.1z M194.8,791.9c0-0.2,0.2-0.2,0.4-0.2s0.2,0.2,0.2,0.4s-0.2,0.2-0.4,0.2C194.8,792.1,194.6,792.1,194.8,791.9z
	 M195.8,780.8c-0.2,0-0.2-0.2-0.2-0.4s0.2-0.2,0.4-0.2s0.2,0.2,0.2,0.2C196,780.8,196,780.8,195.8,780.8z M196.4,785.9
	c0,0.2-0.2,0.2-0.4,0.2s-0.2-0.2-0.2-0.4s0.2-0.2,0.4-0.2C196.2,785.5,196.4,785.7,196.4,785.9z M197.5,789.6c0-0.2,0.4-0.4,0.6-0.2
	c0.2,0,0.4,0.4,0.2,0.6c0,0.2-0.2,0.4-0.6,0.4C197.5,790,197.5,789.8,197.5,789.6z M198.1,792.7c-0.2,0-0.2-0.2-0.2-0.2
	c0-0.2,0.2-0.2,0.2-0.2c0.2,0,0.2,0.2,0.2,0.2C198.5,792.5,198.3,792.7,198.1,792.7z M204.4,792.3c-0.2,0-0.4-0.2-0.2-0.4
	c0-0.2,0.2-0.4,0.4-0.2c0.2,0,0.4,0.2,0.2,0.4C204.9,792.1,204.6,792.3,204.4,792.3z M209.8,790.2c-0.2,0-0.2-0.2-0.2-0.4
	s0.2-0.2,0.4-0.2c0.2,0,0.2,0.2,0.2,0.4C210,790.2,209.8,790.2,209.8,790.2z M217,774.6c0.6,0.6,0.8,1.4,0.8,2.3
	c0,1.8-2.3,3.1-4.3,3.1c-1.8,0.2-2.5,0-3.5-0.4c-0.4,0.2-0.8,0.6-1.2,0.8v-0.2v-2.1c0-0.4,0-1,0-1.4c0.2,0.4,0.4,0.6,0.8,1
	c0,0,0.6,0.4,1.8,0.6c1.2,0.2,2.5,0.2,2.7-0.6c0.2-0.6,0-0.8-0.4-1c0,0-1.4-0.6-1.6-0.6c0,0-0.2,0-0.2-0.2c-1.2-0.4-3.3-1.6-3.3-3.3
	c0-1.6,1.6-3.3,3.9-3.5c0.4,0,0.6,0,1,0c-3.7-4.7-8.2-8.6-11.9-10.5c-6.2-2.9-9.7-0.8-8.4,5.5c0.6,3.3,2.7,7.2,4.5,10.5l1.2-4.1
	c0,0-1.2-1.4-1.2-1.2h5.5l3.1,9l1,1l0.4,0.4h-6.8l1-1.2l-0.4-1.2h-2.5c1.2,1.8,2.3,3.3,2.9,3.7c0.4,0.4,0.8,0.8,1.2,1l1.4,1.2
	c0.8,0.6,1.4,1.2,1.8,1.4c1.2,0.8,0.6,1.6,0.4,1.8c-0.4,0.2-1.4,0-1.8-0.8c-0.2-0.2-0.8-1-1.4-1.8l-1.2-1.4
	c-0.6-0.6-2.3-2.9-4.1-5.3l0,0l-0.4,1.2l1,1.2H195l1.4-1.2l0.8-2.9c-0.8-1.2-1.6-2.5-2.1-3.5c-1.8-3.5-5.3-12.5-1.2-15
	c4.1-2.3,10.1,1.2,16.2,7.2c1.4,1.4,3.1,3.1,4.3,4.9c0.6,0.2,0.8,0.4,1.2,0.4c0.4-0.2,0.8-0.6,1-0.8c0,0.6,0,1.2,0,1.8l0,0
	c0,0.4,0,1,0,1.4c-0.4-0.4-0.6-0.6-1-0.8c0.4,0.6,0.8,1,1.2,1.6l0.6,1c0.8,1.4,1.6,2.9,2.3,4.5l2.3-8l-0.8-0.8
	c-0.2-0.2-0.4-0.4-0.4-0.4h1h2.3h2.3l3.1,9l1.4,1.4h-6.6l1-1.2l-0.4-1.4h-3.3l-0.4,1.4l1,1.2h-2.1c1,2.7,1.4,5.3,1.2,7.6
	c-0.6,5.3-7,3.9-9.2,2.3c4.7,1.6,6.6,1.4,7.8,0c1.4-1.8,0.8-3.5,0.4-6.8c0-0.8-0.4-1.8-0.8-2.9h-1.4l1-0.8
	C218.8,777.7,218,776,217,774.6c-0.2-0.4-0.4-0.8-0.6-1l0,0l-1.4-2.1l0,0l0,0l-0.2-0.4c-0.4,0-0.8-0.2-1-0.2c-0.4,0-0.6,0-0.8,0.2
	c-0.4,0.2-0.8,0.4-0.8,0.6c0,0.2,0,0.2,0.2,0.4l0,0l0.2,0.2l0,0l0,0c0.6,0.4,1.6,0.6,2.7,1c0.2,0.2,0.6,0.2,0.8,0.4
	C215.7,773.8,216.8,774.2,217,774.6z M218,785.5c-0.2,0-0.2-0.2-0.2-0.4s0.2-0.2,0.4-0.2s0.2,0.2,0.2,0.4
	C218.2,785.5,218,785.5,218,785.5z M218.4,788.6c0,0.2-0.2,0.2-0.4,0.2c-0.2,0-0.2-0.2-0.2-0.4s0.2-0.2,0.4-0.2
	C218.2,788.2,218.4,788.4,218.4,788.6z M219.6,794.7c0,0.2-0.4,0.4-0.6,0.2c-0.2,0-0.4-0.4-0.2-0.6c0-0.2,0.4-0.4,0.6-0.2
	C219.4,794.1,219.6,794.5,219.6,794.7z M223.5,782c0-0.2,0.2-0.2,0.2-0.2c0.2,0,0.2,0.2,0.2,0.2l-0.2,0.2
	C223.5,782.2,223.3,782.2,223.5,782z M224.2,787.7c0.2,0,0.2,0.2,0.2,0.4s-0.2,0.2-0.4,0.2s-0.2-0.2-0.2-0.4S224,787.7,224.2,787.7z
	 M224,783.4c0-0.2,0.2-0.2,0.4-0.2c0.2,0,0.2,0.2,0.2,0.4s-0.2,0.2-0.4,0.2C224,783.6,224,783.6,224,783.4z M225.2,789.6l-0.2,0.2
	l-0.2,0.8l-0.2-0.8l-0.2-0.2h-0.8l0.8-0.2c0,0,0-0.2,0.2-0.2l0.2-0.8l0.2,0.8c0,0,0,0,0.2,0.2l0.8,0.2H225.2z M226.2,789.8
	c-0.2,0-0.2-0.2-0.2-0.4s0.2-0.2,0.4-0.2s0.2,0.2,0.2,0.4C226.6,789.8,226.4,789.8,226.2,789.8z M226.6,785.9
	c-0.2,0-0.2-0.2-0.2-0.4s0.2-0.2,0.4-0.2s0.2,0.2,0.2,0.4S226.8,786.1,226.6,785.9z M228.1,785.5c-0.2,0-0.4-0.2-0.2-0.4
	c0-0.2,0.2-0.4,0.4-0.2c0.2,0,0.2,0.2,0.2,0.4C228.5,785.3,228.3,785.5,228.1,785.5z M227.6,783.2c0,0,0,0.2-0.2,0.2l-0.2,1.4
	l-0.2-1.4l-0.2-0.2l-1.2-0.2l1.2-0.2c0,0,0-0.2,0.2-0.2l0.2-1.4l0.2,1.4c0,0,0.2,0,0.2,0.2l1,0.2L227.6,783.2z M220,784
	c-0.2,0-0.4-0.4-0.4-0.6c0-0.2,0.4-0.4,0.6-0.4c0.2,0,0.4,0.4,0.4,0.6S220.3,784.3,220,784z M220.5,785.9c0,0.2-0.2,0.4-0.4,0.2
	c-0.2,0-0.2-0.2-0.2-0.4s0.2-0.4,0.4-0.2C220.5,785.5,220.5,785.7,220.5,785.9z M199.9,760.2l-1,0.2c0,0,0,0.2-0.2,0.2l-0.2,1.8
	l-0.2-1.8l-0.2-0.2h-1l1-0.2c0,0,0-0.2,0.2-0.2l0.2-1.4l0.2,1.4c0,0,0.2,0,0.2,0.2H199.9z M197,761.5c0,0.2-0.2,0.2-0.4,0.2
	s-0.2-0.2-0.2-0.4s0.2-0.2,0.4-0.2C196.8,761.3,197,761.5,197,761.5z M196,760.2l-0.2,0.2l-0.2-0.2l0.2-0.2
	C196,760,196,760,196,760.2z"/>
<path fill="#8C8C8C" d="M199.9,772.8c0,0-0.2,0-0.4,0c-0.2,0.8-0.6,2.3-0.8,2.9c0.6-0.2,1.4-0.4,2.1-0.4L199.9,772.8L199.9,772.8z"
	/>
<path fill="#8C8C8C" d="M198.7,775.8h2.3l-1.2-3.7L198.7,775.8L198.7,775.8z"/>
<path fill="#8C8C8C" d="M222.1,775.8h2.3l-1.2-3.7C223.1,772.3,222.3,775.8,222.1,775.8L222.1,775.8z"/>
</svg>
