<svg xmlns="http://www.w3.org/2000/svg" viewBox="0 0 706.58 267.72" enable-background="new 0 0 706.58 267.72"><g fill="#036"><path d="m605.6 103.42h-18.628c-1.742 0-3.154 1.409-3.154 3.153v120.06c0 1.742 1.412 3.154 3.154 3.154h18.628c1.74 0 3.154-1.412 3.154-3.154v-120.06c0-1.745-1.414-3.154-3.154-3.154"/><path d="m152.51 136.51c-24.966 0-38.16 12.441-38.16 35.978v23.507c0 24.296 12.358 35.61 38.892 35.61 10.814 0 22.331-1.889 31.597-5.184 1.484-.526 2.352-2.067 2.033-3.608l-2.753-13.333c-.177-.858-.703-1.603-1.452-2.059-.749-.454-1.651-.577-2.496-.338-8.547 2.419-16.699 3.596-24.923 3.596-13.571 0-15.959-4.382-15.959-13.591v-3.203h46.23c1.741 0 3.154-1.414 3.154-3.154v-17.15c-.003-25.291-11.492-37.07-36.16-37.07m-13.227 36.811v-3.02c0-8.775 4.26-12.862 13.408-12.862 10.1 0 12.133 4.92 12.133 12.862v3.02h-25.541"/><path d="m279.19 139.63c-.594-.816-1.541-1.297-2.548-1.297h-18.973c-1.388 0-2.615.911-3.02 2.241l-18.724 61.852-18.552-61.844c-.401-1.334-1.629-2.249-3.02-2.249h-18.969c-1.01 0-1.954.481-2.548 1.297-.594.813-.763 1.862-.456 2.82l27.27 85.14c.419 1.304 1.633 2.192 3 2.192h26.709c1.371 0 2.585-.888 3-2.192l27.27-85.14c.306-.959.136-2.01-.456-2.82"/><path d="m60.67 105.72h-43.39c-1.741 0-3.153 1.413-3.153 3.154v117.76c0 1.74 1.412 3.154 3.153 3.154h19.358c1.741 0 3.153-1.414 3.153-3.154v-97.98h18.512c13.531 0 18.329 4.32 18.329 16.505v45.19c0 12.185-4.798 16.505-18.329 16.505h-2.591c-1.741 0-3.153 1.412-3.153 3.154v16.624c0 1.74 1.412 3.154 3.153 3.154h4.958c37.571 0 41.627-23.758 41.627-33.972v-56.13c0-21.587-15.172-33.97-41.627-33.97"/><path d="m405.08 125.49v-16.624c0-1.741-1.414-3.153-3.154-3.153h-87.15c-1.74 0-3.154 1.412-3.154 3.153v16.624c0 1.741 1.414 3.154 3.154 3.154h30.741v97.98c0 1.742 1.414 3.154 3.154 3.154h19.358c1.74 0 3.154-1.412 3.154-3.154v-97.98h30.743c1.741 0 3.155-1.413 3.155-3.154"/><path d="m436.42 136.51c-26.16 0-39.985 12.566-39.985 36.34v22.414c0 23.773 13.828 36.34 39.985 36.34 26.16 0 39.987-12.566 39.987-36.34v-22.414c0-23.776-13.827-36.34-39.987-36.34m-15.05 35.612c0-9.782 4.5-13.955 15.05-13.955 10.548 0 15.05 4.173 15.05 13.955v23.871c0 9.784-4.502 13.957-15.05 13.957-10.548 0-15.05-4.173-15.05-13.957v-23.871"/><path d="m528.37 136.51c-26.16 0-39.985 12.566-39.985 36.34v22.414c0 23.773 13.828 36.34 39.985 36.34 26.16 0 39.985-12.566 39.985-36.34v-22.414c0-23.776-13.826-36.34-39.985-36.34m-15.05 35.612c0-9.782 4.5-13.955 15.05-13.955 10.548 0 15.05 4.173 15.05 13.955v23.871c0 9.784-4.5 13.957-15.05 13.957-10.548 0-15.05-4.173-15.05-13.957v-23.871"/><path d="m660.54 173.19c-11.559-2.978-11.559-3.098-11.559-9.443 0-4.255.422-6.301 9.946-6.301 6.524 0 16.15 1.138 22.332 2.196.851.149 1.723-.063 2.413-.577.692-.514 1.144-1.289 1.25-2.143l1.756-14.201c.198-1.6-.843-3.092-2.413-3.457-7.15-1.668-17.1-2.746-25.338-2.746-28.649 0-34.519 10.812-34.519 27.05 0 17.848 3.317 23.844 25.27 29.2 14.453 3.475 14.453 6.06 14.453 10.349 0 5.63-.481 7.576-9.946 7.576-7.623 0-16.44-1.185-24.19-3.254-.853-.227-1.758-.09-2.501.383-.745.471-1.257 1.23-1.416 2.096l-2.462 13.474c-.286 1.555.626 3.08 2.13 3.569 8.46 2.744 20.606 4.66 29.535 4.66 27.741 0 33.426-11.614 33.426-29.05 0-19.255-3.421-22.824-28.17-29.373"/></g></svg>