<svg xmlns="http://www.w3.org/2000/svg" viewBox="0 0 785.25 267.72" enable-background="new 0 0 785.25 267.72" xmlns:xlink="http://www.w3.org/1999/xlink"><g fill="#036"><path d="m489.72 127.35c7.452 0 17.763 1.04 27.588 2.745.843.151 1.714-.059 2.405-.558.695-.522 1.152-1.284 1.256-2.147l2.102-16.362c.211-1.6-.823-3.09-2.392-3.461-9.848-2.368-21.11-3.662-31.681-3.662-29.518 0-44.498 12.284-44.498 36.466v54.612c0 24.21 14.98 36.481 44.498 36.481 10.574 0 21.833-1.301 31.681-3.651 1.568-.376 2.603-1.876 2.392-3.464l-2.102-16.368c-.104-.852-.561-1.617-1.256-2.125-.691-.517-1.562-.732-2.405-.586-9.829 1.718-20.15 2.749-27.588 2.749-14.635 0-19.576-4.304-19.576-17.03v-46.601c.001-12.738 4.941-17.03 19.576-17.03"/><path d="m296.23 105.72h-19.329c-1.739 0-3.149 1.416-3.149 3.168v46.718h-42.26v-46.718c0-1.752-1.412-3.168-3.154-3.168h-19.324c-1.742 0-3.154 1.416-3.154 3.168v117.61c0 1.737 1.412 3.153 3.154 3.153h19.324c1.743 0 3.154-1.416 3.154-3.153v-47.993h42.26v47.993c0 1.737 1.411 3.153 3.149 3.153h19.329c1.742 0 3.154-1.416 3.154-3.153v-117.61c0-1.752-1.412-3.168-3.154-3.168"/><path d="m655.64 136.5c-9.408 0-20.875 1.48-29.19 3.763-1.556.446-2.532 1.97-2.276 3.561l2.182 13.497c.134.841.604 1.599 1.304 2.082.697.493 1.572.679 2.406.508 7.734-1.503 15.727-2.336 22.492-2.336 13.423 0 15.57 2.833 15.57 11.933v7.941h-19.94c-19.06 0-27.2 7.855-27.2 26.28 0 17.621 8.922 27.737 24.472 27.737 8.982 0 17.994-2.499 25.563-7.07l.801 2.923c.379 1.372 1.621 2.329 3.03 2.329h15.03c1.738 0 3.142-1.416 3.142-3.153v-56.63c0-24.329-10.135-33.37-37.39-33.37m12.484 59.654v10.972c-3.08 1.646-8.66 3.986-15.394 3.986-5.796 0-7.571-1.773-7.571-7.567 0-5.624 1.098-7.391 7.937-7.391h15.03z"/><path d="m757.54 211.53c-.129-.88-.624-1.655-1.367-2.153-.722-.487-1.644-.645-2.494-.446-3.288.827-6.44 1.272-8.869 1.272-4.612 0-6.646-1.984-6.646-6.471v-45.06h18.07c1.739 0 3.146-1.409 3.146-3.146v-14.06c0-1.725-1.406-3.145-3.146-3.145h-18.07v-21.695c0-.922-.397-1.777-1.09-2.382-.694-.597-1.592-.861-2.491-.734l-18.62 2.59c-1.553.219-2.707 1.546-2.707 3.119v19.1h-10.139c-1.747 0-3.148 1.419-3.148 3.145v14.06c0 1.737 1.401 3.146 3.148 3.146h10.139v47.977c0 16.469 8.65 24.825 25.736 24.825 4.862 0 13.11-1.114 18.518-2.993 1.416-.498 2.31-1.939 2.075-3.44l-2.045-13.507"/></g><path fill="#036" d="m336.68 138.31h-18.617c-1.732 0-3.138 1.413-3.138 3.145v85.04c0 1.73 1.406 3.153 3.138 3.153h18.617c1.747 0 3.155-1.424 3.155-3.153v-85.04c0-1.732-1.408-3.145-3.155-3.145" id="0"/><path fill="#036" d="m336.68 102.17h-18.617c-1.732 0-3.138 1.41-3.138 3.143v18.451c0 1.744 1.406 3.149 3.138 3.149h18.617c1.747 0 3.155-1.406 3.155-3.149v-18.451c0-1.733-1.408-3.143-3.155-3.143"/><use xlink:href="#0"/><g fill="#036"><path d="m403.06 136.5c-9.869 0-18.814 2.759-27.25 8.446l-1.284-4.383c-.395-1.33-1.63-2.248-3.03-2.248h-14.504c-1.739 0-3.155 1.413-3.155 3.141v121.13c0 1.735 1.416 3.148 3.155 3.148h18.596c1.749 0 3.15-1.413 3.15-3.148v-33.366c7.293 1.42 15.516 2.251 22.321 2.251 20.349 0 30.655-10.98 30.655-32.646v-30.23c-.001-26.54-15.578-32.1-28.655-32.1m3.76 31.552v31.31c0 7.544-2.744 10.48-9.763 10.48-7.08 0-14.568-1.324-18.319-2.104v-42.35c4.114-3.568 11.448-7.261 18.498-7.261 6.88-.001 9.584 2.782 9.584 9.933"/><path d="m589.77 136.5c-9.107 0-21.297 3.062-31.06 7.726v-38.895c0-1.762-1.408-3.172-3.145-3.172h-18.598c-1.738 0-3.158 1.41-3.158 3.172v121.18c0 1.713 1.42 3.139 3.158 3.139h18.598c1.737 0 3.145-1.426 3.145-3.139v-58.91c6.702-3.412 16.14-6.938 21.768-6.938 4.194 0 5.747 1.555 5.747 5.756v60.09c0 1.713 1.405 3.139 3.153 3.139h18.607c1.736 0 3.148-1.426 3.148-3.139v-62.47c.001-18.278-7.189-27.546-21.362-27.546"/><path d="m144.81 183.55c-.002-1.721-1.398-3.269-3.275-3.269-.758 0-1.533.258-2.169.829-8.285 7.445-22.385 14.03-39.437 14.07h-.069c-17.02-.043-30.717-6.891-39.437-14.07-.552-.454-1.573-.765-2.235-.765-2.026 0-3.205 1.724-3.207 3.62-.001 1.463 1.024 2.685 1.868 3.952 4.888 7.338 20.05 19.8 42.867 19.8h.357c22.816 0 37.979-12.461 42.867-19.8.845-1.267 1.872-2.906 1.87-4.369"/><path d="m167.49 240.75c-5.809-3.308-11.322-8.904-13.847-16.571-.495-1.504-.055-2.718 1.104-3.614 16.806-12.994 27.381-31.857 27.381-52.866 0-39.18-36.82-70.945-82.23-70.945-45.42 0-82.24 31.764-82.24 70.945 0 39.2 36.821 70.971 82.24 70.971 5.934 0 11.721-.543 17.298-1.574 1.369-.253 2.482.068 3.393.628 11.255 6.907 28.02 12.699 42.713 12.699 4.735 0 6.556-3 6.556-5.738 0-1.764-.956-3.133-2.363-3.935m-22.01-6.896c.258.343.395.634.395.951 0 .476-.452.804-1.02.804-4.119 0-16.814-6.841-23.496-12.477-.914-.771-2.194-1.054-4.01-.658-5.573 1.213-11.421 1.868-17.456 1.868-37.804 0-68.45-25.303-68.45-56.53 0-31.21 30.648-56.5 68.45-56.5 37.801 0 68.45 25.298 68.45 56.5 0 18.63-10.915 35.15-27.748 45.45-1.125.688-2.323 1.982-2.323 3.601 0 3.321 3.123 11.56 7.213 16.989"/></g></svg>