<svg xmlns="http://www.w3.org/2000/svg" viewBox="0 0 1401 267.72" enable-background="new 0 0 1401 267.72"><g fill="#036"><path d="m521.4 223.43c9.793 3.744 23.428 6.07 35.581 6.07 33.916 0 40.552-12.525 40.552-34.16 0-11.646-.242-19.07-5.01-24.65-4.325-5.07-12.09-8.42-29.688-12.799-11.306-2.83-17.849-4.576-20.824-7.523-2.643-2.617-2.92-6.75-2.92-15.553 0-13.376 3.176-17.541 23.03-17.541 9.559 0 20.432 1.153 29.83 3.164.139.029.279.045.419.045.421 0 .836-.134 1.182-.387.46-.337.755-.854.81-1.422l1.039-10.818c.096-.985-.545-1.892-1.504-2.132-9.322-2.335-21.637-3.786-32.14-3.786-33.05 0-39.823 12.922-39.823 32.32 0 11.493.39 20.1 5.426 26.18 5 6.04 14.12 9.04 28.18 12.193 12.425 2.816 18.866 4.676 21.853 7.627 2.709 2.678 2.979 6.562 2.979 15.447 0 14.491-4.951 18.459-23.03 18.459-10.612 0-21.884-1.688-32.596-4.881-.188-.057-.38-.084-.571-.084-.36 0-.718.098-1.032.287-.481.29-.819.77-.93 1.322l-2.064 10.357c-.191.957.336 1.911 1.247 2.26"/><path d="m864.84 168.11v28.15c0 19.95 6.178 33.24 36.33 33.24 7.988 0 16.269-1.275 20.582-2.46.951-.262 1.569-1.176 1.458-2.154l-1.175-10.338c-.064-.555-.356-1.059-.806-1.388-.345-.253-.76-.387-1.182-.387-.128 0-.257.013-.384.037-5.931 1.16-11.862 1.724-18.13 1.724-15.06 0-19.898-4.307-19.898-17.724v-29.25c0-13.416 4.835-17.723 19.898-17.723 6.245 0 12.171.564 18.12 1.723.127.025.255.037.383.037.427 0 .846-.137 1.193-.395.452-.336.741-.847.797-1.406l1.029-10.334c.097-.969-.518-1.866-1.456-2.126-4.432-1.228-12.465-2.464-20.422-2.464-18.866.002-36.33 4.03-36.33 33.24"/><path d="m932.27 169.03v26.862c0 22.927 11.485 33.605 36.14 33.605 10.613 0 22.12-1.799 30.78-4.812.918-.319 1.474-1.253 1.316-2.212l-1.607-9.805c-.091-.554-.409-1.043-.879-1.351-.328-.215-.71-.326-1.095-.326-.166 0-.332.021-.494.062-10.01 2.554-18.999 3.849-26.732 3.849-16.01 0-20.643-4.306-20.643-19.19v-6.867h51.29c1.104 0 2-.895 2-2v-17.441c0-23.23-11.221-34.53-34.3-34.53-11.685 0-20.658 2.903-26.672 8.629-6.04 5.752-9.102 14.342-9.102 25.531m53.843 5.584h-37.05v-6.687c0-13.02 5.856-18.825 18.984-18.825 13 0 18.07 5.277 18.07 18.825v6.687"/><path d="m1185.8 229.5c10.613 0 22.12-1.799 30.78-4.812.918-.319 1.474-1.253 1.316-2.212l-1.607-9.805c-.091-.554-.409-1.043-.879-1.351-.328-.215-.71-.326-1.095-.326-.165 0-.332.021-.494.062-10 2.554-18.998 3.849-26.732 3.849-16.01 0-20.643-4.306-20.643-19.19v-6.867h51.29c1.105 0 2-.895 2-2v-17.441c0-23.23-11.221-34.53-34.3-34.53-11.685 0-20.658 2.903-26.672 8.629-6.04 5.752-9.102 14.342-9.102 25.531v26.862c.001 22.926 11.486 33.605 36.14 33.605m17.701-54.884h-37.06v-6.687c0-13.02 5.855-18.825 18.984-18.825 13 0 18.07 5.277 18.07 18.825v6.687z"/><path d="m848.09 100.18h-12.787c-1.104 0-2 .896-2 2v16.518c0 1.104.896 2 2 2h12.787c1.104 0 2-.896 2-2v-16.518c0-1.104-.895-2-2-2"/><path d="m833.3 225.66c0 1.105.896 2 2 2h12.787c1.104 0 2-.895 2-2v-87.21c0-1.104-.896-2-2-2h-12.787c-1.104 0-2 .896-2 2v87.21"/><path d="m1305.32 227.66h12.793c1.104 0 2-.895 2-2v-123.49c0-1.104-.896-2-2-2h-12.793c-1.104 0-2 .896-2 2v123.49c0 1.105.896 2 2 2"/><path d="m1355.06 226.84c.376.521.979.829 1.621.829h14.9c.755 0 1.445-.425 1.785-1.099.341-.675.271-1.482-.177-2.09l-31.593-42.756 30.17-41.839c.44-.609.501-1.413.158-2.081-.342-.668-1.029-1.089-1.78-1.089h-14.561c-.646 0-1.253.312-1.629.839l-30.662 43.01c-.498.699-.494 1.637.008 2.332l31.759 43.944"/><path d="m735.9 148.66l-1.639-11.497c-.089-.619-.462-1.162-1.01-1.466-.301-.167-.636-.252-.972-.252-.273 0-.548.057-.805.169-7.661 3.37-15.67 8.07-22.17 12.985l-.738-10.03c-.076-1.045-.946-1.854-1.994-1.854h-10.864c-1.105 0-2 .895-2 2v86.953c0 1.105.895 2 2 2h12.793c1.104 0 2-.895 2-2v-60.15c5.25-3.667 15.13-10.273 24.299-14.781.777-.38 1.22-1.218 1.097-2.075"/><path d="m1232.45 225.06c7.279 2.571 18.914 4.438 27.664 4.438 8.713 0 17.586-.586 23.459-4.839 5.524-3.998 8.096-10.918 8.096-21.777 0-8.463-.312-14.328-4.478-18.561-3.922-3.985-11.08-6.326-23.773-9.501-14.743-3.599-14.743-5.092-14.743-14.806 0-4.355.631-6.604 2.249-8.02 1.966-1.721 5.823-2.523 12.14-2.523 6.591 0 15.5.879 23.25 2.293.119.021.24.033.359.033.436 0 .862-.143 1.213-.41.448-.342.73-.857.779-1.418l.877-10.126c.085-.975-.548-1.867-1.495-2.11-7.09-1.818-15.995-2.86-24.433-2.86-26.19 0-31.555 9.904-31.555 24.776 0 18.811 2.283 23.774 24.758 29.355 18.238 4.476 18.238 5.609 18.238 14.433 0 5.059-.797 7.724-2.749 9.196-2.11 1.593-6.03 2.272-13.11 2.272-7.186 0-16.368-1.253-23.965-3.271-.17-.045-.342-.066-.514-.066-.381 0-.758.109-1.084.319-.474.306-.796.796-.889 1.352l-1.604 9.609c-.159.957.392 1.89 1.308 2.214"/><path d="m772.68 227.66h18.665c.862 0 1.628-.554 1.899-1.373l28.717-86.953c.201-.609.098-1.278-.278-1.799-.376-.52-.98-.828-1.621-.828h-12.461c-.87 0-1.64.561-1.905 1.39l-23.683 73.973-23.679-73.972c-.265-.829-1.035-1.391-1.904-1.391h-12.461c-.642 0-1.245.308-1.621.828-.376.52-.479 1.189-.278 1.799l28.711 86.953c.27.819 1.035 1.373 1.899 1.373"/><path d="m1054.95 227.67h13.16c1.104 0 2-.896 2-2v-106.37h25.785c16.614 0 23.391 6.2 23.391 21.399v50.04c0 14.528-7.988 21.329-25.14 21.4l-2.932.002-7.594.002c-1.104 0-2 .896-2 2v11.521c0 1.104.896 2 2 2h13.252c12.923-.067 22.836-3.131 29.474-9.104 6.702-6.03 10.1-15.02 10.1-26.716v-52.25c0-11.761-3.438-20.784-10.216-26.817-6.711-5.973-16.733-9-29.786-9h-41.496c-1.104 0-2 .895-2 2v119.89c0 1.106.896 2 2 2"/><path d="m678.1 188.85c1.104 0 2-.896 2-2v-17.441c0-23.24-11.221-34.53-34.3-34.53-11.685 0-20.658 2.902-26.672 8.629-6.04 5.752-9.102 14.342-9.102 25.531v26.861c0 22.928 11.484 33.605 36.14 33.605 10.613 0 22.12-1.799 30.78-4.812.918-.319 1.474-1.253 1.316-2.213l-1.607-9.805c-.091-.553-.409-1.043-.879-1.35-.329-.215-.71-.326-1.095-.326-.166 0-.332.021-.495.062-10 2.553-18.993 3.848-26.732 3.848-16.01 0-20.643-4.305-20.643-19.19v-6.867h51.29m-32.3-39.739c13 0 18.07 5.278 18.07 18.825v6.688h-37.05v-6.688c.001-13.02 5.856-18.825 18.985-18.825"/><path d="m256.33 103.74h-19.332c-1.74 0-3.15 1.41-3.15 3.149v117.63c0 1.74 1.41 3.15 3.15 3.15h19.332c1.74 0 3.15-1.41 3.15-3.15v-117.63c.001-1.739-1.41-3.149-3.15-3.149"/><path d="m211.05 103.74h-19.568c-1.656 0-3.01 1.344-3.01 3v92.04c0 11.567-8.814 15.369-14.779 15.673-.805.039-1.74.546-2.254 1.297-.516.754-.66 1.7-.393 2.572l4.758 15.477c.389 1.267 1.754 2.08 3.975 2.08 18.723 0 34.27-14.699 34.27-34.403v-94.73c0-.797-.316-1.561-.879-2.124-.564-.565-1.327-.879-2.122-.879"/><path d="m59.52 71.65c-6.01 0-10.881 4.863-10.881 10.891 0 6.01 4.869 10.891 10.881 10.891 6.02 0 10.879-4.88 10.879-10.891-.001-6.03-4.862-10.891-10.879-10.891"/><path d="m131 71.65c-6.02 0-10.877 4.863-10.877 10.891 0 6.01 4.861 10.891 10.877 10.891 5.998 0 10.877-4.88 10.877-10.891 0-6.03-4.879-10.882-10.877-10.891"/><path d="m95.26 61.716c-6.01 0-10.881 4.861-10.881 10.891 0 6.01 4.869 10.893 10.881 10.893 6.02 0 10.877-4.881 10.877-10.893 0-6.03-4.862-10.891-10.877-10.891"/><path d="m156.72 102c-.605-.459-1.334-.699-2.072-.699-.408 0-.822.076-1.215.227-7.367 2.816-14.848 4.956-21.676 6.547-1.393.324-2.518 1.358-2.984 2.602-4.975 13.627-17.678 26.6-31.01 40.19-.535.508-1.285 1.178-2.504 1.178-1.217 0-1.959-.649-2.504-1.178-13.326-13.592-26.03-26.52-31.01-40.15-.467-1.24-1.592-2.275-2.982-2.6-6.832-1.592-14.332-3.797-21.689-6.613-.395-.15-.809-.226-1.219-.226-.738 0-1.453.231-2.057.692-.943.721-1.434 1.889-1.322 3.01 1.129 11.332 5.605 22.409 13.688 34.02 7.596 10.915 17.504 21.02 27.08 30.786 17.65 18 34.32 35.01 35.787 54.723.131 1.778 1.613 3.157 3.4 3.157h20.736c.934 0 1.826-.384 2.471-1.061.643-.677.982-1.584.936-2.518-.652-13.182-5.613-26.383-15.166-40.35-2-2.93-4.147-5.779-6.389-8.568-.91-1.136-.529-2.547.168-3.259.688-.705 1.381-1.408 2.076-2.121 9.58-9.771 19.486-19.871 27.08-30.786 8.08-11.608 12.557-22.621 13.686-33.952.112-1.139-.405-2.347-1.323-3.049"/><path d="m73.01 185.12c-.49-.513-1.211-1.037-2.422-1.037-1.547 0-2.465 1.07-2.812 1.601-8.723 13.272-13.227 25.8-13.85 38.39-.045.928.297 1.85.939 2.528.645.674 1.549 1.062 2.48 1.062h20.702c1.781 0 3.281-1.394 3.412-3.17.451-6.067 2.34-12.149 5.779-18.54 1.191-2.211.266-4.288-.422-5.176-3.412-4.437-7.59-9.169-13.806-15.657"/><path d="m95.28 112.16c6.498 0 10.268-.391 11.592-.391 1.603 0 3.137 1.313 3.137 3.154 0 .537-.127.92-.254 1.259-.861 2.305-4.789 10.595-12.1 17.705-.82.799-1.75.948-2.391.948h-.008c-.639 0-1.568-.149-2.389-.948-7.312-7.11-11.242-15.4-12.1-17.705-.127-.339-.254-.722-.254-1.259 0-1.841 1.535-3.154 3.139-3.154 1.324 0 5.092.391 11.588.391h.044"/><path d="m443.68 105.94c-.414-1.312-1.629-2.203-3-2.203h-29.395c-1.375 0-2.592.891-3 2.203l-34.02 107.89-20.936-30.2c11.59-4.809 17.465-14.885 17.465-29.953v-15.834c0-23.59-12.318-34.11-39.938-34.11h-47.887c-1.74 0-3.15 1.41-3.15 3.149v117.63c0 1.74 1.41 3.15 3.15 3.15h19.332c1.74 0 3.15-1.41 3.15-3.15v-36.891h19.785l26.908 38.689c.588.846 1.555 1.352 2.586 1.352h39.705c1.396 0 2.625-.918 3.02-2.258l25.539-86.51c0 0 .668-2.16 2.98-2.16 2.352 0 2.924 2.246 2.924 2.248l11.85 41.02h-16.279c-1.412 0-2.65.939-3.03 2.297l-4.566 16.239c-.268.95-.074 1.97.521 2.755.596.786 1.523 1.248 2.51 1.248h27.473l7.137 22.903c.41 1.317 1.629 2.214 3.01 2.214h20.246c1 0 1.947-.477 2.539-1.287.594-.81.766-1.854.465-2.811l-37.08-117.62m-98.53 45.739c0 10.01-3.838 13.391-15.211 13.391h-24.496v-38.43h24.496c12.668 0 15.211 4.984 15.211 13.03v12.01"/></g></svg>