<svg xmlns="http://www.w3.org/2000/svg" viewBox="0 0 478.125 267.72" enable-background="new 0 0 478.125 267.72"><g fill="#036"><path d="m233.96 105.72h-19.333c-1.739 0-3.15 1.41-3.15 3.15v117.63c0 1.74 1.411 3.15 3.15 3.15h19.333c1.739 0 3.15-1.41 3.15-3.15v-117.63c0-1.74-1.411-3.15-3.15-3.15"/><path d="m357.88 224.45l-26.917-38.827c11.59-4.809 17.464-14.884 17.464-29.953v-15.835c0-23.591-12.317-34.11-39.936-34.11h-47.888c-1.739 0-3.15 1.41-3.15 3.15v117.63c0 1.74 1.411 3.15 3.15 3.15h19.333c1.739 0 3.15-1.41 3.15-3.15v-36.891h19.784l26.908 38.689c.589.846 1.555 1.352 2.586 1.352h23.1c.006 0 .014 0 .02 0 1.74 0 3.15-1.41 3.15-3.15 0-.783-.285-1.499-.758-2.05m-74.79-95.82h24.495c12.668 0 15.212 4.985 15.212 13.03v12.01c0 10.01-3.838 13.391-15.212 13.391h-24.495v-38.433"/><path d="m421.31 107.92c-.413-1.312-1.629-2.203-3-2.203h-29.395c-1.375 0-2.591.892-3 2.203l-37.09 117.63c-.302.957-.13 2 .464 2.811.593.811 1.536 1.287 2.54 1.287h20.236c1.397 0 2.626-.918 3.02-2.258l25.539-86.51c0 0 .668-2.16 2.98-2.16 2.352 0 2.924 2.245 2.924 2.248l11.85 41.02h-16.279c-1.411 0-2.65.939-3.03 2.297l-4.567 16.239c-.268.95-.074 1.97.521 2.755.596.786 1.525 1.248 2.511 1.248h27.472l7.137 22.903c.41 1.317 1.629 2.214 3.01 2.214h20.246c1 0 1.947-.477 2.54-1.287.594-.81.766-1.854.464-2.811l-37.09-117.63"/><path d="m188.69 105.72h-19.568c-1.656 0-3.01 1.344-3.01 3v92.04c0 11.567-8.814 15.369-14.779 15.673-.804.039-1.739.546-2.254 1.297-.516.754-.659 1.7-.392 2.572l4.758 15.477c.388 1.267 1.753 2.08 3.975 2.08 18.723 0 34.27-14.699 34.27-34.403v-94.74c0-.796-.315-1.56-.879-2.123-.562-.563-1.325-.879-2.121-.879"/><path d="m37.15 73.63c-6.01 0-10.88 4.863-10.88 10.89 0 6.01 4.868 10.891 10.88 10.891 6.02 0 10.88-4.879 10.88-10.891 0-6.03-4.862-10.89-10.88-10.89"/><path d="m108.64 73.63c-6.02 0-10.877 4.863-10.877 10.89 0 6.01 4.861 10.891 10.877 10.891 5.998 0 10.878-4.879 10.878-10.891 0-6.03-4.88-10.881-10.878-10.89"/><path d="m72.894 63.696c-6.01 0-10.88 4.861-10.88 10.89 0 6.01 4.868 10.893 10.88 10.893 6.02 0 10.878-4.88 10.878-10.893 0-6.03-4.862-10.89-10.878-10.89"/><path d="m134.35 103.97c-.605-.46-1.333-.699-2.071-.699-.409 0-.823.075-1.216.226-7.367 2.817-14.848 4.957-21.676 6.547-1.393.325-2.518 1.359-2.984 2.602-4.975 13.627-17.678 26.603-31.01 40.19-.535.508-1.284 1.177-2.504 1.177-1.217 0-1.959-.648-2.504-1.177-13.326-13.592-26.03-26.522-31.01-40.15-.467-1.241-1.592-2.275-2.982-2.601-6.832-1.591-14.332-3.797-21.689-6.613-.394-.15-.809-.225-1.219-.225-.738 0-1.452.232-2.057.693-.943.72-1.434 1.888-1.322 3.01 1.129 11.332 5.606 22.41 13.687 34.02 7.596 10.914 17.504 21.02 27.08 30.786 17.649 18 34.32 35 35.786 54.722.132 1.778 1.613 3.157 3.4 3.157h20.736c.934 0 1.826-.384 2.471-1.06.643-.677.982-1.584.936-2.519-.652-13.182-5.613-26.383-15.166-40.35-2-2.93-4.146-5.779-6.389-8.568-.91-1.136-.529-2.547.168-3.259.688-.705 1.381-1.408 2.076-2.121 9.58-9.77 19.486-19.872 27.08-30.786 8.08-11.61 12.557-22.623 13.686-33.954.114-1.138-.404-2.346-1.322-3.048"/><path d="m50.646 187.1c-.49-.513-1.211-1.037-2.421-1.037-1.548 0-2.466 1.07-2.813 1.601-8.722 13.272-13.227 25.8-13.85 38.39-.045.928.297 1.85.94 2.528.644.674 1.549 1.062 2.48 1.062h20.701c1.781 0 3.281-1.393 3.412-3.17.451-6.067 2.34-12.149 5.779-18.54 1.191-2.211.266-4.288-.421-5.176-3.411-4.438-7.59-9.17-13.807-15.657"/><path d="m72.918 114.13c6.498 0 10.267-.391 11.592-.391 1.604 0 3.137 1.314 3.137 3.154 0 .537-.127.92-.253 1.259-.862 2.305-4.79 10.595-12.1 17.705-.82.798-1.75.947-2.391.947h-.008c-.639 0-1.568-.149-2.388-.947-7.314-7.111-11.242-15.401-12.1-17.705-.127-.339-.254-.722-.254-1.259 0-1.84 1.535-3.154 3.139-3.154 1.324 0 5.092.391 11.588.391h.044"/></g></svg>