<svg xmlns="http://www.w3.org/2000/svg" viewBox="0 0 581.36 70.218" enable-background="new 0 0 581.36 70.218"><g fill="#59aee1"><path d="m344.99 62.59l2.052-2.385c2.385 2.718 6.268 5.381 11.593 5.381 7.544 0 9.707-4.216 9.707-7.377 0-10.872-22.19-5.214-22.19-18.14 0-6.05 5.436-9.873 12.147-9.873 5.492 0 9.707 1.941 12.536 5.214l-2.108 2.329c-2.662-3.217-6.434-4.659-10.594-4.659-4.936 0-8.653 2.829-8.653 6.823 0 9.485 22.19 4.271 22.19 18.08 0 4.77-3.162 10.483-13.146 10.483-6.101-.001-10.705-2.497-13.534-5.881"/><path d="m358.52 70.22c-6.085 0-11.369-2.311-14.877-6.507-.549-.657-.542-1.615.016-2.265l2.052-2.385c.331-.384.811-.606 1.318-.608h.009c.504 0 .983.217 1.316.596 1.568 1.787 4.988 4.785 10.277 4.785 7.383 0 7.957-4.307 7.957-5.627 0-3.685-3.456-4.838-9.1-6.412-5.833-1.629-13.09-3.656-13.09-11.726 0-6.735 5.845-11.623 13.898-11.623 5.776 0 10.569 2.01 13.86 5.82.578.669.566 1.663-.027 2.319l-2.108 2.329c-.341.377-.827.588-1.336.575-.508-.011-.986-.242-1.31-.634-2.753-3.326-6.547-4.02-9.246-4.02-4 0-6.903 2.133-6.903 5.072 0 2.828 3.14 3.854 8.263 5.292 6.204 1.743 13.925 3.911 13.925 12.79 0 5.644-3.901 12.234-14.896 12.234m-9.403-26.22c.351.451.774.854 1.266 1.222-.475-.367-.901-.771-1.266-1.222"/><path d="m386.24 53.602v-22.797h3.217v22.742c0 7.488 3.938 12.04 11.205 12.04 7.266 0 11.205-4.548 11.205-12.04v-22.742h3.217v22.797c0 9.152-4.881 14.865-14.422 14.865-9.486.001-14.422-5.768-14.422-14.865"/><path d="m400.66 70.22c-10.126 0-16.17-6.211-16.17-16.615v-22.798c0-.967.783-1.75 1.75-1.75h3.217c.967 0 1.75.783 1.75 1.75v22.742c0 8.502 5.141 10.287 9.454 10.287 4.313 0 9.454-1.785 9.454-10.287v-22.742c0-.967.783-1.75 1.75-1.75h3.217c.967 0 1.75.783 1.75 1.75v22.797c.002 10.404-6.04 16.616-16.17 16.616"/><path d="m463.46 67.802v-33l-13.479 33h-1.22l-13.534-33v33h-3.161v-36.998h4.715l12.592 30.784 12.536-30.784h4.77v36.997h-3.219"/><path d="m466.67 69.55h-3.217c-.967 0-1.75-.783-1.75-1.75v-24.09l-10.11 24.75c-.269.658-.909 1.088-1.62 1.088h-1.22c-.71 0-1.35-.429-1.619-1.086l-10.166-24.786v24.12c0 .967-.783 1.75-1.75 1.75h-3.161c-.967 0-1.75-.783-1.75-1.75v-36.997c0-.967.783-1.75 1.75-1.75h4.715c.711 0 1.351.43 1.62 1.087l10.968 26.815 10.918-26.812c.269-.659.909-1.09 1.621-1.09h4.77c.967 0 1.75.783 1.75 1.75v36.997c-.001.967-.784 1.75-1.751 1.75m-17.896-6.315l.588 1.435.585-1.432c-.183.065-.379.1-.581.1-.207 0-.406-.036-.592-.103m14.678-30.19c.112 0 .225.011.338.033.478.094.879.377 1.13.762v-1.288h-1.843l-.248.608c.197-.075.408-.115.623-.115m-29.644-.493v1.208c.253-.344.629-.594 1.073-.682.332-.066.666-.032.966.083l-.249-.609h-1.79"/><path d="m515.18 67.802v-33l-13.479 33h-1.22l-13.534-33v33h-3.161v-36.998h4.715l12.592 30.784 12.536-30.784h4.77v36.997h-3.219"/><path d="m518.4 69.55h-3.217c-.967 0-1.75-.783-1.75-1.75v-24.09l-10.11 24.75c-.269.658-.909 1.088-1.62 1.088h-1.22c-.71 0-1.35-.429-1.619-1.086l-10.166-24.786v24.12c0 .967-.783 1.75-1.75 1.75h-3.161c-.967 0-1.75-.783-1.75-1.75v-36.997c0-.967.783-1.75 1.75-1.75h4.715c.711 0 1.351.43 1.62 1.087l10.968 26.815 10.918-26.812c.269-.659.909-1.09 1.621-1.09h4.77c.967 0 1.75.783 1.75 1.75v36.997c0 .967-.784 1.75-1.751 1.75m-17.896-6.315l.588 1.435.585-1.432c-.183.065-.379.1-.581.1-.207 0-.406-.036-.592-.103m14.679-30.19c.112 0 .225.011.338.033.478.094.879.377 1.13.762v-1.288h-1.843l-.247.608c.195-.075.406-.115.622-.115m-29.644-.493v1.208c.253-.344.629-.594 1.073-.682.332-.066.666-.032.966.083l-.249-.609h-1.79"/><path d="m535.51 67.802v-36.997h3.161v36.997h-3.161"/><path d="m538.67 69.55h-3.161c-.967 0-1.75-.783-1.75-1.75v-36.997c0-.967.783-1.75 1.75-1.75h3.161c.967 0 1.75.783 1.75 1.75v36.997c0 .967-.783 1.75-1.75 1.75"/><path d="m564.3 67.802v-34.11h-12.09v-2.884h27.401v2.884h-12.09v34.11h-3.217"/><path d="m567.52 69.55h-3.217c-.967 0-1.75-.783-1.75-1.75v-32.363h-10.342c-.967 0-1.75-.783-1.75-1.75v-2.884c0-.967.783-1.75 1.75-1.75h27.401c.967 0 1.75.783 1.75 1.75v2.884c0 .967-.783 1.75-1.75 1.75h-10.342v32.363c0 .967-.783 1.75-1.75 1.75m-1.883-36.997c.113.132.205.281.275.443.069-.162.162-.31.275-.443h-.55"/></g><g fill="#036"><path d="m95.99 18.681c-.171-.543-.675-.912-1.244-.912h-12.173c-.569 0-1.073.369-1.244.912l-15.359 48.712c-.125.397-.054.828.192 1.164.246.334.636.533 1.052.533h8.381c.578 0 1.088-.381 1.251-.936l10.577-35.824c0 0 .277-.894 1.234-.894.974 0 1.211.93 1.211.93l4.908 16.987h-6.592c-.584 0-1.098.388-1.256.951l-1.892 6.725c-.111.394-.031.815.216 1.141.246.326.631.517 1.04.517h11.228l2.956 9.486c.17.545.674.916 1.246.916h8.384c.416 0 .807-.198 1.052-.533.246-.336.317-.768.192-1.164l-15.36-48.711"/><path d="m132.51 61.58c-.055-.363-.26-.686-.566-.891-.306-.204-.683-.27-1.039-.181-1.361.338-2.664.525-3.67.525-1.907 0-2.757-.827-2.757-2.681v-18.663h7.484c.72 0 1.305-.585 1.305-1.305v-5.821c0-.72-.584-1.304-1.305-1.304h-7.484v-8.987c0-.377-.163-.736-.448-.984-.285-.248-.664-.36-1.037-.308l-7.705 1.073c-.645.09-1.125.641-1.125 1.292v7.914h-4.197c-.721 0-1.305.584-1.305 1.304v5.821c0 .72.584 1.305 1.305 1.305h4.197v19.868c0 6.823 3.587 10.282 10.66 10.282 2.01 0 5.431-.463 7.667-1.241.594-.206.956-.806.862-1.425l-.842-5.593"/><path d="m146.77 16.819h-7.705c-.72 0-1.305.584-1.305 1.305v49.661c0 .721.584 1.305 1.305 1.305h7.705c.72 0 1.305-.584 1.305-1.305v-49.661c0-.721-.585-1.305-1.305-1.305"/><path d="m166.59 30.508c-3.901 0-8.649.615-12.09 1.568-.642.177-1.046.809-.94 1.464l.902 5.594c.056.349.252.66.541.862.289.202.648.279.996.21 3.204-.623 6.513-.967 9.315-.967 5.561 0 6.451 1.174 6.451 4.943v3.286h-8.26c-7.894 0-11.263 3.256-11.263 10.887 0 7.301 3.693 11.488 10.132 11.488 3.724 0 7.454-1.034 10.589-2.924l.33 1.21c.155.567.67.961 1.259.961h6.223c.72 0 1.305-.584 1.305-1.305v-23.451c-.001-10.08-4.198-13.826-15.486-13.826m5.17 24.712v4.537c-1.277.681-3.591 1.656-6.376 1.656-2.402 0-3.134-.732-3.134-3.134 0-2.333.453-3.059 3.285-3.059h6.225"/><path d="m201.38 45.677c-4.781-1.232-4.781-1.282-4.781-3.906 0-1.761.175-2.607 4.114-2.607 2.698 0 6.681.472 9.237.91.352.06.713-.026.998-.239.286-.212.473-.533.517-.887l.726-5.873c.082-.663-.349-1.28-.999-1.431-2.957-.689-7.07-1.135-10.48-1.135-11.85 0-14.278 4.473-14.278 11.187 0 7.383 1.371 9.864 10.454 12.08 5.979 1.439 5.979 2.508 5.979 4.281 0 2.328-.199 3.134-4.114 3.134-3.151 0-6.799-.49-10.01-1.346-.352-.093-.727-.036-1.034.159-.308.193-.52.509-.585.867l-1.019 5.572c-.118.644.259 1.274.881 1.475 3.499 1.136 8.523 1.928 12.217 1.928 11.474 0 13.826-4.803 13.826-12.02.001-7.965-1.414-9.44-11.651-12.15"/><path d="m231.16 45.677c-4.781-1.232-4.781-1.282-4.781-3.906 0-1.761.175-2.607 4.114-2.607 2.699 0 6.681.472 9.238.91.351.06.712-.026.998-.239.286-.212.473-.533.516-.887l.726-5.873c.082-.663-.349-1.28-.999-1.431-2.958-.689-7.07-1.135-10.48-1.135-11.85 0-14.278 4.473-14.278 11.187 0 7.383 1.371 9.864 10.454 12.08 5.979 1.439 5.979 2.508 5.979 4.281 0 2.328-.199 3.134-4.114 3.134-3.152 0-6.799-.49-10.01-1.346-.352-.093-.727-.036-1.034.159-.308.193-.52.509-.585.867l-1.019 5.572c-.118.644.259 1.274.881 1.475 3.499 1.136 8.523 1.928 12.217 1.928 11.474 0 13.826-4.803 13.826-12.02 0-7.965-1.415-9.44-11.651-12.15"/><path d="m256.09 16.817h-7.705c-.72 0-1.305.584-1.305 1.304v6.813c0 .721.584 1.305 1.305 1.305h7.705c.72 0 1.305-.584 1.305-1.305v-6.813c-.001-.72-.585-1.304-1.305-1.304"/><path d="m256.09 31.26h-7.705c-.72 0-1.305.584-1.305 1.304v35.22c0 .721.584 1.305 1.305 1.305h7.705c.72 0 1.305-.584 1.305-1.305v-35.22c-.001-.72-.585-1.304-1.305-1.304"/><path d="m276.1 30.508c-3.902 0-8.649.615-12.09 1.568-.641.177-1.046.809-.94 1.464l.902 5.594c.056.349.252.66.541.862.289.202.648.279.996.21 3.204-.623 6.512-.967 9.314-.967 5.561 0 6.451 1.174 6.451 4.943v3.286h-8.26c-7.894 0-11.263 3.256-11.263 10.887 0 7.301 3.693 11.488 10.132 11.488 3.724 0 7.454-1.034 10.589-2.924l.33 1.21c.155.567.67.961 1.259.961h6.223c.72 0 1.305-.584 1.305-1.305v-23.451c-.001-10.08-4.197-13.826-15.485-13.826m5.17 24.712v4.537c-1.278.681-3.591 1.656-6.376 1.656-2.402 0-3.134-.732-3.134-3.134 0-2.333.453-3.059 3.285-3.059h6.225"/><path d="m320.08 30.508c-4.085 0-9.647 1.408-14.347 3.614l-.563-1.922c-.163-.556-.673-.937-1.252-.937h-5.706c-.72 0-1.305.584-1.305 1.304v35.22c0 .721.584 1.305 1.305 1.305h7.705c.72 0 1.305-.584 1.305-1.305v-24.393c2.775-1.412 6.678-2.872 9.01-2.872 1.735 0 2.38.645 2.38 2.38v24.884c0 .721.584 1.305 1.305 1.305h7.705c.72 0 1.305-.584 1.305-1.305v-25.864c0-7.573-2.978-11.413-8.851-11.413"/></g><path fill="#9ec73b" d="m75.45.721c-.337-.452-.874-.721-1.435-.721-.29 0-.577.073-.827.21-10.527 5.762-22.73 8.81-35.29 8.813-12.56-.003-24.762-3.05-35.29-8.812-.251-.138-.537-.211-.827-.211-.563 0-1.099.269-1.435.719-.498.663-.514 1.774.335 2.436 5.272 3.931 11.08 6.999 17.273 9.1 6.416 2.177 13.13 3.282 19.94 3.285h.005c6.816-.003 13.525-1.108 19.94-3.285 6.19-2.099 12-5.167 17.28-9.102.841-.657.825-1.769.328-2.429"/><g fill="#59aee1"><path d="m63.35 17.13c-.251-.191-.552-.29-.858-.29-.169 0-.341.031-.504.093-3.051 1.167-6.149 2.053-8.977 2.711-.577.135-1.043.563-1.236 1.077-2.06 5.644-7.321 11.02-12.841 16.646-.222.21-.532.488-1.037.488-.504 0-.811-.269-1.037-.488-5.519-5.629-10.78-10.984-12.841-16.628-.193-.514-.66-.942-1.236-1.077-2.829-.659-5.936-1.572-8.982-2.739-.164-.062-.335-.093-.505-.093-.305 0-.601.096-.851.287-.391.298-.594.782-.548 1.247.468 4.693 2.322 9.281 5.668 14.09 3.146 4.52 7.249 8.704 11.216 12.75 7.31 7.456 14.215 14.497 14.821 22.663.055.736.668 1.308 1.408 1.308h8.588c.387 0 .756-.159 1.023-.439.266-.28.407-.656.387-1.043-.27-5.459-2.325-10.926-6.281-16.712-.829-1.213-1.717-2.393-2.646-3.549-.377-.47-.219-1.055.07-1.349.285-.292.572-.584.86-.878 3.968-4.047 8.07-8.23 11.217-12.75 3.346-4.808 5.2-9.369 5.668-14.06.049-.47-.166-.971-.546-1.262"/><path d="m28.68 51.56c-.203-.212-.501-.43-1-.43-.641 0-1.021.443-1.165.663-3.612 5.497-5.478 10.685-5.736 15.899-.019.384.123.766.389 1.047.267.279.641.44 1.027.44h8.573c.737 0 1.359-.577 1.413-1.313.187-2.513.969-5.03 2.393-7.678.493-.916.11-1.776-.174-2.144-1.412-1.837-3.143-3.797-5.717-6.484"/><path d="m37.904 21.342c2.691 0 4.252-.162 4.801-.162.664 0 1.299.544 1.299 1.306 0 .222-.053.381-.105.522-.357.954-1.984 4.388-5.01 7.333-.34.33-.725.392-.99.392h-.003c-.265 0-.65-.062-.989-.392-3.03-2.945-4.656-6.378-5.01-7.333-.053-.14-.105-.299-.105-.522 0-.762.635-1.306 1.3-1.306.548 0 2.109.162 4.799.162h.017"/></g></svg>